<?xml version="1.0" encoding="UTF-8"?>
<svg id="Layer_1" xmlns="http://www.w3.org/2000/svg" version="1.1" viewBox="0 0 968.19 789.92">
  <!-- Generator: Adobe Illustrator 29.6.0, SVG Export Plug-In . SVG Version: 2.1.1 Build 207)  -->
  <defs>
    <style>
      .st0 {
        fill: #0f0b0d;
        fill-rule: evenodd;
      }

      .st1 {
        fill: #fff;
      }

      .st2 {
        display: none;
      }
    </style>
  </defs>
  <g id="BACKGROUND" class="st2">
    <rect class="st1" x="468.19" y="50" width="500" height="500"/>
  </g>
  <g id="OBJECTS">
    <path class="st0" d="M206.22,57.75c-.09.3-.26,1.28-.35,2.11l-.13,1.54-.35-1.41c-.22-.78-.65-1.67-.96-1.93-.48-.39-.69-.22-1.11.74-.56,1.59-2.54,9.79-4.34,18.39-2.45,11.68-3.87,16.37-6.23,20.87-7.64,14.35-9.23,17.78-12.79,27.67-7.12,19.67-8.17,24.32-9.58,42.15-.43,5.32-.43,10.66-.04,23.71l.48,16.87-.96,1.32c-.52.74-2.54,3.08-4.52,5.19-1.93,2.11-4.78,5.62-6.32,7.86-6.36,9.27-10.31,13.18-18.22,17.96-4.86,2.93-6.49,4.84-7.86,9.1-1.37,4.43-1.85,7.12-2.67,15.5-.83,8.64-3.17,25.21-3.78,27.23-.83,2.54-4.52,9.71-7.3,14.09-1.45,2.28-3.95,6.49-5.62,9.4s-4.17,7.04-5.67,9.23c-4.78,7.21-6.28,13.22-4.26,17.57.87,1.93,4.17,5.23,9.36,9.32,6.99,5.54,10.94,7.17,18.59,7.47l5.28.26,1.24,1.41c2.93,3.56,10.58,8.38,15.59,9.88,1.02.3,1.85.69,1.85.87,0,.87-1.8,1.76-3.6,1.76-5.15,0-10.27,2.89-15.68,8.82-3.43,3.74-4.86,6.06-4.86,7.73,0,1.11-1.19,1.54-6.82,2.54-5.15.91-5.93,1.45-7.64,5.02-1.19,2.54-1.19,3.65.17,4.97,1.45,1.45,3.82,2.11,7.73,2.11h3.26l-3.02,1.85c-1.67,1.04-4.39,3.08-6.02,4.56-1.59,1.5-3.91,3.26-5.06,3.95-2.8,1.59-7.21,5.06-8.9,6.99-1.5,1.76-2.11,4.08-1.41,5.45.65,1.19,1.72,1.19,3-.04.93-.87,1.54-.96,6.41-1.02,2.93-.04,6.54-.22,7.99-.39l2.63-.35-1.11.91c-.61.48-2.24,1.54-3.65,2.28-3.08,1.63-5.23,3.47-6.45,5.49-1.11,1.72-.83,3.47.39,3.13.48-.09,1.02.17,1.32.65.69,1.15,3.13,2.11,5.23,2.11.93,0,1.85.13,1.98.26.48.48-1.76,1.93-2.89,1.93-.61,0-1.28.22-1.41.48-.35.52,3.39,4.52,5.15,5.45,1.67.91,7.77,1.54,17.05,1.8,10.4.26,14.94.74,20.74,2.41,6.1,1.72,10.66,2.19,15.59,1.72,5.08-.52,10.14-1.54,12.2-2.37,1.59-.69,1.72-.65,2.63.17.52.48,1.5,2.11,2.19,3.65,3.82,8.38,5.75,12.03,8.9,16.76,4,6.06,10.88,14.9,15.29,19.54,4.3,4.56,12.92,12.33,17.35,15.68l3.78,2.8-2.58,2.5c-3.73,3.56-13.27,14.4-16.83,19.2-6.32,8.47-10.05,17-11.42,25.91-.83,5.67-.83,16.33,0,22.84,2.5,18.98,13.05,42.78,24.28,54.72,1.8,1.93,3.21,3.56,3.13,3.65s-3.65.48-7.86.87c-8.56.74-11.99,1.59-24.15,5.75-8.73,3.02-10.01,3.65-12.88,6.28-2.41,2.28-8.3,9.49-10.73,13.09-1.76,2.67-3.65,8.64-3.65,11.64,0,2.45.87,3.52,2.24,2.67.43-.3,1.32-.52,1.93-.52,1.28,0,3.3-.91,5.32-2.45l1.37-1.02.26,1.85c.48,3.6,4.08,4.93,6.67,2.5.96-.91,1.04-.91,2.41-.22l1.45.74-2.28,1.24c-2.45,1.37-9.92,8.12-11.9,10.81-2.06,2.8-3.17,6.84-3.26,11.64-.04,5.8,1.28,8.17,3.08,5.45.39-.61.93-1.11,1.24-1.11.26,0,1.67-.56,3.13-1.24,1.45-.69,3.56-1.41,4.73-1.54,1.15-.17,2.87-.69,3.82-1.19s1.76-.78,1.76-.65-.48.96-1.04,1.89c-3.13,4.73-4.56,12.88-2.76,15.59.96,1.54,1.89,1.5,2.19-.04.48-2.15.93-2.45,2.5-1.89,3.34,1.15,6.32.39,9.58-2.41l1.76-1.5-.87,2.32c-1.28,3.21-1.63,11.42-.61,13.4.87,1.67,2.11,1.8,3.02.35.69-1.04.74-1.04,2.93-.39,4.21,1.24,5.97.17,9.75-5.8,2.67-4.17,5.28-6.75,9.19-9.01,1.8-1.04,4.69-2.87,6.45-4.04,4.04-2.63,4.86-2.67,10.97-.3,6.93,2.67,8.51,2.89,22.93,3.21,7.12.13,15.72.56,19.11.91,8.88.91,15.55.83,19.72-.22,6.1-1.54,9.75-4.21,10.86-7.95.48-1.5.69-1.72,1.45-1.54,2.67.78,19.28,3.95,25.43,4.86,13.79,2.11,19.02,1.93,40.5-1.32,20.46-3.08,37.37-6.71,56.44-12.07,5.71-1.63,20.74-4.39,23.8-4.39,1.02,0,1.59.56,3.69,3.82,5.28,8.03,11.42,15.07,12.51,14.35.26-.17.35-.91.22-1.89l-.26-1.59,1.85,2.19c4.34,5.08,5.54,6.19,5.84,5.41.35-.83-1.67-5.62-4.65-11.03-1.19-2.11-2.15-3.95-2.15-4.08,0-.48,8.21,6.71,13.18,11.55,2.8,2.76,5.19,4.78,5.41,4.56.48-.48-1.04-4.04-2.54-6.06-.61-.78-1.63-2.19-2.28-3.08l-1.24-1.63,1.54,1.04c.83.56,4.13,2.93,7.25,5.28,8.43,6.19,9.84,7.12,10.62,6.84.56-.26.56-.39-.09-1.5-.43-.65-1.28-1.76-1.93-2.45-1.37-1.5-1.41-1.5,5.23,2.32,4.3,2.5,6.15,3.21,6.15,2.28,0-.17-1.76-1.89-3.95-3.82-4.08-3.52-4.86-4.39-2.71-3,4.13,2.71,15.94,9.49,17.35,9.92,1.85.56,2.45.26,1.63-.74-.61-.74.04-.48,8.25,3.3,2.87,1.32,4.21,1.76,4.52,1.45.78-.78-.69-3-3.56-5.23-1.45-1.15-2.58-2.15-2.5-2.19.09-.09,3.82,1.32,8.3,3.13,8.12,3.26,9.32,3.65,9.75,2.93.26-.43-2.71-3.39-5.45-5.36-1.11-.78-1.59-1.32-1.11-1.15,3.91,1.15,18.94,5.08,19.41,5.08.3,0,.56-.35.56-.78,0-.91-5.67-4.21-11.42-6.67-3.91-1.67-4.21-1.93-2.19-1.59.83.13,7.47,1.24,14.7,2.41,7.25,1.24,14.4,2.5,15.94,2.87,2.32.52,2.8.52,3,.04.35-.91-.09-1.41-2.58-2.89l-2.28-1.37,1.76.3c.96.13,4.3.87,7.38,1.63,6.28,1.5,7.47,1.32,5.06-.74-1.85-1.59-7.3-4.13-12.73-5.97-2.37-.78-4.26-1.5-4.17-1.54.13-.13,11.73,1.41,18.31,2.41,3.02.43,5.62.74,5.84.61.91-.56-.04-1.5-2.87-2.71l-3.21-1.37,2.19.26c1.24.13,4.73.65,7.82,1.15,3.08.48,5.75.74,5.93.56.74-.74-4.26-3.3-10.23-5.15-2.41-.74-3.26-1.15-2.19-1.02,4.73.56,17,2.54,19.33,3.13,3.17.74,4.6.78,4.6.13,0-.61-3.87-2.32-9.84-4.39-3.95-1.37-4.56-1.67-3.3-1.67,2.5-.04,10.27.74,14.79,1.54,2.24.39,4.21.61,4.34.43,1.04-1.02-2.93-3.21-8.64-4.73-1.93-.52-3.47-1.02-3.39-1.04.26-.26,9.92,1.24,13.22,2.06,4.13,1.04,5.19.61,2.63-1.11-2.5-1.63-6.41-3.13-11.64-4.43-7.69-1.89-7.73-1.98-1.15-1.72,5.15.17,6.02.13,6.02-.43,0-.35-.43-.96-.96-1.37-.96-.69-.65-.74,5.36-.48,3.52.13,7.82.39,9.58.52,2.32.22,3.17.17,3.17-.22,0-.65-3.82-2.41-7.04-3.26-2.78-.74-2.89-.69,4.52-1.89,3.02-.48,5.67-.65,7.38-.43,3.21.3,3.34-.3.39-1.85-1.28-.61-1.67-.96-1.11-1.02.48,0,1.28-.09,1.76-.22.48-.09,3-.22,5.62-.26,3.26-.09,4.69-.26,4.69-.65,0-.83-2.63-2.19-5.71-3-5.8-1.5-5.67-1.54,3.65-1.37,5.58.13,9.1,0,9.1-.26,0-.78-6.15-2.71-11.6-3.65-.93-.13-1.59-.35-1.5-.43s3.13-.48,6.71-.87c8.03-.87,8.56-.96,8.56-1.72,0-.65-4.47-1.32-12.42-1.85-2.37-.13-4.26-.35-4.17-.39.35-.3,15.72-2.15,21.65-2.58,5.32-.39,6.58-.61,6.58-1.15,0-.43-1.02-.91-3.08-1.5-2.67-.74-4.56-.87-14.44-.87-12.73-.04-12.81.13.83-2.67,4.13-.83,10.27-1.89,13.75-2.28,4-.48,6.23-.91,6.23-1.28,0-.52-2.32-1.28-5.93-1.85l-2.19-.35,3.73-.35c4.69-.39,5.71-.65,5.71-1.37,0-.65-.35-.78-4.17-1.59l-2.63-.52,4.17-1.02c4.69-1.15,10.14-1.93,13.27-1.93,1.54,0,2.11-.17,2.11-.61,0-.61.61-.83,4.3-1.37,1.45-.22,1.85-.48,1.76-1.02-.35-1.8-9.23-2.37-18.57-1.19-2.89.35-6.54.61-8.12.61l-2.87-.04,4.6-1.54c6.58-2.19,14.77-4.39,21.09-5.67,3.02-.61,5.67-1.32,5.88-1.54.87-.78-.48-1.28-4.47-1.54-2.24-.17-4-.39-3.91-.43.09-.09,3.21-.96,6.93-1.89,3.69-.96,6.82-1.93,6.91-2.15.26-.78-.96-1.15-4.73-1.41l-3.73-.26,7.17-2.32c5.06-1.67,7.12-2.54,7.12-3.02,0-.56-.56-.61-3.6-.39-3.26.22-3.47.17-2.15-.3,2.06-.74,2.28-1.59.39-1.59-2.02-.04-1.19-.43,5.15-2.54,2.89-.96,5.88-2.06,6.58-2.45.74-.35,3.08-1.15,5.23-1.8,4.39-1.24,4.69-1.41,3.78-1.98-1.28-.83-9.97.39-19.07,2.67-2.87.69-5.28,1.24-5.36,1.19-.04-.09,5.32-2.24,11.94-4.73,6.67-2.54,12.2-4.78,12.33-4.97.74-1.19-2.02-1.24-8.88-.09-.69.09,2.11-1.5,6.32-3.56,5.54-2.71,7.47-3.91,7.12-4.26-.61-.61-4.97.17-10.31,1.89-2.19.69-4,1.24-4.04,1.19-.04-.04,1.5-.96,3.39-2.06,2.5-1.37,3.47-2.15,3.34-2.63s1.19-1.5,4.69-3.47c9.4-5.41,12.07-7.51,9.53-7.51-.69,0-7.3,1.89-9.92,2.8-.48.17.26-.39,1.67-1.28,2.67-1.72,2.93-2.15,1.76-2.58-.61-.26.04-.83,2.71-2.54,1.89-1.24,4.86-2.93,6.58-3.82,1.67-.87,3-1.8,2.87-2.02-.39-.78-4.39-.26-7.6,1.02-1.72.69-4.04,1.41-5.15,1.54-1.11.17-2.45.43-3.08.56-1.63.39,3.3-3.13,5.62-4.04,1.02-.39,1.85-.96,1.85-1.24s1.02-1.15,2.19-1.93c1.24-.74,2.19-1.63,2.19-1.89,0-.78-3.3-.09-7.43,1.59-2.06.83-3.78,1.45-3.87,1.37-.35-.3,15.85-10.36,21.39-13.27,1.32-.69,2.37-1.5,2.28-1.72-.35-1.19-6.93.78-14.09,4.21-2.5,1.19-4.6,2.11-4.69,2.02-.22-.22,15.85-12.92,20.15-15.85,2.32-1.63,3.21-2.89,1.98-2.89-1.04,0-9.32,4.21-14.05,7.17-2.63,1.59-4.73,2.8-4.73,2.71,0-.39,10.1-8.82,14.09-11.73,6.58-4.86,5.58-5.8-2.24-2.11-3.78,1.8-4.39,1.98-3.3,1.04,5.45-4.84,12.07-10.99,12.07-11.25,0-1.54-2.87-.13-11.42,5.67l-5.49,3.69,4.39-4.3c2.41-2.37,7.21-6.84,10.66-9.97,6.58-5.93,7.51-7.51,3.13-5.28-1.32.61-3.73,2.02-5.45,3.11l-3.08,1.93,5.19-4.97c6.28-6.06,6.75-7.34,1.76-5.02-1.24.56-4.08,2.32-6.32,3.87-2.24,1.5-4.39,2.93-4.78,3.17-.35.22,2.37-2.67,6.06-6.41,5.67-5.75,7.6-8.25,6.45-8.25-.52,0-3.17,1.5-5.71,3.17l-2.63,1.76,4.34-4.43c2.41-2.41,4.26-4.56,4.08-4.73s-1.11-.09-2.06.13c-1.67.48-1.59.39,3.6-5.28,6.58-7.17,8.47-9.45,8.08-9.79-.52-.56-3.65,1.63-13.01,9.06l-1.98,1.59,1.54-1.98c3.56-4.56,15.59-19.24,17.05-20.74.87-.91,1.45-1.8,1.28-1.98-.56-.52-3.13,1.04-6.91,4.3l-3.73,3.21,2.28-2.63c1.24-1.45,3.17-3.47,4.26-4.47,2.93-2.67,2.54-3.56-.74-1.89-.87.43-1.63.69-1.63.52s.87-1.19,1.98-2.24c2.02-1.98,2.5-3.08,1.37-3.08-.35,0-2.54,1.28-4.84,2.8-2.32,1.54-4.21,2.71-4.21,2.58s2.76-4.08,6.15-8.77c3.39-4.69,6.15-8.73,6.15-8.97s-.17-.39-.39-.39c-.78,0-6.02,4.73-10.97,9.92-2.71,2.89-4.73,4.84-4.52,4.34.26-.48,3.82-5.67,7.9-11.51,8.25-11.77,10.73-16.03,9.88-16.87-.39-.39-.65-.39-1.15,0-.52.39-.69.3-.91-.48-.26-.96-.43-.83-2.67,1.54-2.63,2.76-3.02,2.89-1.32.43.74-1.15.91-1.76.61-2.15-.3-.39.39-1.76,2.41-4.86,3.73-5.71,5.02-8.3,4.3-9.01-.35-.35-1.41.39-4.3,3.21-2.11,2.02-3.65,3.39-3.47,3.02.22-.35,1.8-2.87,3.56-5.49,2.76-4.3,5.45-9.01,5.45-9.66,0-.13-.35-.22-.78-.22-.78,0-4.84,3.95-10.36,10.1-1.41,1.59-2.28,2.37-1.93,1.76s2.37-4,4.43-7.51c2.11-3.56,3.82-6.62,3.82-6.95,0-.69-1.45-.61-2.45.17-.43.35-.96.65-1.11.65-.17,0,1.45-2.89,3.6-6.49,2.15-3.56,3.91-6.82,3.91-7.25,0-1.24-1.04-.87-3.3,1.11l-2.06,1.8,1.63-2.54c2.37-3.65,3.47-6.36,2.89-6.93-.3-.3-1.89.91-5.32,4.34l-4.86,4.78,1.32-3.08c.69-1.72,2.37-5.62,3.69-8.73,2.19-5.08,2.37-5.67,1.63-5.84-.69-.17-.56-.56,1.15-3.47,1.11-1.76,2.15-3.34,2.41-3.47.22-.17.39-.56.39-.91,0-.78-1.37-.78-2.45.04-1.5,1.11-1.59.69-.35-1.54.65-1.24,1.11-2.32.91-2.45-.13-.13.22-1.37.83-2.67,1.28-2.93,1.28-3.21.17-3.21-.56,0-1.85,1.32-3.82,3.87-5.08,6.62-5.15,6.71-3.6,3.82.78-1.45,2.58-4.47,4-6.75,1.76-2.87,2.41-4.26,2.15-4.6-.3-.35.3-1.67,1.93-4.26,2.28-3.52,2.8-4.78,2.06-4.78-.48,0-4.39,3.78-6.41,6.15-1.89,2.28-1.72,1.72.69-1.85.91-1.37,1.67-2.8,1.67-3.17s1.11-2.11,2.41-3.87,2.41-3.34,2.41-3.52c0-.91-2.24.04-4.04,1.76-.69.61-1.24,1.02-1.24.83s1.19-2.5,2.63-5.23c1.45-2.67,2.63-5.08,2.63-5.36s2.5-3.82,5.49-7.95c8.03-10.94,6.06-10.66-4.65.65l-5.28,5.49,4.97-6.67c4.34-5.88,10.45-15.03,10.45-15.72,0-.13-.3-.22-.69-.22-.35,0-.52-.22-.39-.43.43-.69-1.11-1.04-2.45-.56-.87.35.56-1.54,5.36-6.82,9.23-10.18,15.55-18.05,14.98-18.61s-3.3,1.28-7.77,5.19c-1.8,1.54-3.34,2.8-3.47,2.8s1.32-1.89,3.3-4.21c4.08-4.97,7.82-9.79,10.45-13.7,1.54-2.32,1.72-2.76,1.15-3.02-.52-.17-2.15,1.11-5.62,4.56-2.71,2.63-5.32,5.08-5.75,5.45-1.59,1.15,7.69-10.73,12.2-15.64,10.94-11.9,14.01-15.98,10.81-14.27-.48.26-2.87,2.15-5.28,4.17-2.41,2.06-4.39,3.6-4.39,3.47,0-.17,1.76-2.19,3.87-4.52,6.91-7.51,9.79-11.12,9.58-11.68-.13-.35.09-.83.43-1.15.43-.35.48-.65.17-1.11-.74-.83,9.58-12.64,12.12-13.92,2.11-1.02,2.45-1.63,1.02-1.63-.93,0-.93-.04.22-1.5.61-.83,1.15-1.63,1.15-1.76,0-.78-1.45.04-4.04,2.37-1.59,1.45-3.02,2.63-3.21,2.63-.39,0,1.45-2.11,7.95-9.1,2.78-2.93,5.02-5.45,5.02-5.58,0-.61-1.32-.17-3.08,1.11-1.63,1.19-1.76,1.24-1.15.35.39-.56,6.02-6.49,12.46-13.14,14.4-14.77,14.98-15.37,13.83-15.37-.96,0-5.02,3.17-16.03,12.59-9.79,8.43-10.31,8.82-7.82,6.06,1.04-1.24,3.95-3.74,6.36-5.58,5.93-4.47,13.62-11.51,18.09-16.46,3.52-3.91,4.17-4.97,3.17-4.97-.26,0-3.17,2.15-6.41,4.78-3.3,2.63-6.41,4.93-6.99,5.06-.56.17-2.89,1.37-5.08,2.71-4.6,2.76-4.56,2.71,3.73-4.65,5.97-5.32,7.73-7.21,7.17-7.77-.13-.17-1.24.17-2.37.74-1.15.61-2.24,1.19-2.5,1.28-.22.09,2.02-2.37,5.02-5.49,4.97-5.23,10.58-12.07,10.58-13.01s-1.45-.13-4.52,2.5c-1.89,1.59-3.39,2.76-3.39,2.63,0-.17,2.11-2.58,4.65-5.41,8.03-8.82,15.55-18.39,15.55-19.8,0-.83-1.24-.52-2.71.69-.78.65-3.87,3.34-6.82,5.97-3,2.63-5.41,4.69-5.41,4.56,0-.78,5.02-8.6,8.3-12.88,2.19-2.89,4-5.41,4-5.58,0-1.24-3.43.74-7.38,4.3-1.24,1.15-2.28,1.98-2.28,1.85,0-1.02,5.84-9.97,9.27-14.18,6.99-8.64,10.14-13.35,9.01-13.35-.09,0-3.56,3.43-7.73,7.56-4.13,4.17-7.3,7.12-6.99,6.49.3-.61,2.28-3.34,4.39-6.06,2.15-2.71,4.39-5.8,5.02-6.91,1.32-2.19,1.93-5.06,1.15-5.06-.35,0-.17-.48.35-1.15,2.11-2.67.65-3.13-2.45-.78-1.15.87-2.41,1.85-2.76,2.11s.22-.56,1.24-1.8c1.04-1.28,1.8-2.5,1.63-2.76-.13-.22.83-1.89,2.19-3.69s2.37-3.52,2.19-3.78c-.13-.26-.48-.3-.74-.17-.56.35-.09-.52.87-1.67.96-1.19.26-1.76-1.28-1.02-.96.52-1.28.56-1.28.13,0-.3.39-.83.87-1.15.52-.3.78-.74.65-.91-.39-.65-3.82,0-6.84,1.32-6.41,2.76-16.83,6.06-17.39,5.49-.17-.17,6.75-3.26,11.51-5.06,5.32-2.06,15.64-7.21,15.46-7.73-.09-.22-1.15-.35-2.32-.3-1.89.13-14.79,2.32-17.74,3.02-.87.17-.69-.04.78-1.15,1.67-1.24,2.45-2.67,1.45-2.67-.17,0-4.17,1.19-8.88,2.67-4.69,1.5-9.79,3.08-11.34,3.56-1.54.48-3.13.96-3.52,1.11-.39.09,1.98-1.24,5.23-2.93,6.84-3.65,8.34-4.65,8.34-5.54,0-.35-.09-.61-.17-.61-.13,0-4.73,1.54-10.27,3.47-8.56,2.89-10.05,3.34-9.88,2.63.17-.65,0-.83-1.04-.83-.74,0-2.28.3-3.43.65-2.5.74-3.02.56-1.24-.39.69-.35,2.32-1.59,3.56-2.67,2.45-2.19,3.02-3.6,1.32-3.13-.56.17-1.89.39-3,.48-1.67.13-7.95,1.85-11.21,3.08-.48.17.69-.74,2.63-2.02,3.82-2.58,4.47-3.47,2.58-3.47-1.45,0-9.4,2.67-16.85,5.67-3.02,1.19-5.54,2.11-5.67,2.02-.3-.35.96-1.59,3-2.93,4.08-2.76,5.54-4.73,3.47-4.73-1.02,0-11.81,4.21-15.37,5.97-3.39,1.72-3,1.24,1.67-1.93,2.37-1.63,5.08-3.52,6.02-4.21,1.67-1.28,2.15-2.45.96-2.45-1.11,0-7.43,2.54-13.36,5.32-5.58,2.63-6.93,3.02-4.34,1.24,4.3-2.93,7.21-6.1,5.67-6.1-.48,0-12.96,5.8-19.37,9.01-2.76,1.37-4.73,2.24-4.39,1.89s2.32-2.02,4.39-3.74c5.06-4.21,6.06-5.32,5.19-5.62-1.24-.48-10.14,4.52-20.24,11.29-3.6,2.41-3.87,2.54-3,1.28.56-.78,1.41-1.67,1.85-1.93,1.19-.74,1.02-1.63-.3-1.63s-3.73,1.59-8.97,5.93c-2.11,1.76-4.6,3.6-5.54,4.13-.96.48-3.78,2.24-6.32,3.95-2.5,1.72-4.69,3-4.84,2.87s.87-1.24,2.19-2.37c1.8-1.59,2.28-2.28,1.93-2.63-.93-.91-6.82,2.58-17.83,10.62-2.63,1.85-4.73,3.3-4.73,3.21,0-.13.96-1.59,2.15-3.21,3.73-5.19,5.28-8.43,4.04-8.43-.87,0-4.97,3.69-11.03,9.92-3.47,3.6-5.97,6.02-5.49,5.36.48-.61,3.13-4.08,5.84-7.64,3.26-4.26,4.78-6.62,4.52-6.91-.74-.74-4.78,2.71-13.7,11.68l-8.38,8.43,4-6.06c6.19-9.27,4.39-9.1-4.86.56l-5.71,5.93,2.5-3.87c1.76-2.71,2.37-4.04,2.06-4.34-.35-.35-1.32.35-3.3,2.24-1.8,1.72-3.08,2.58-3.47,2.45-.96-.39-4.52,2.63-8.43,7.12-1.89,2.19-3.91,4.21-4.47,4.56-1.04.52-3.91,3.65-6.32,6.84-.61.78-1.72,1.89-2.45,2.41-2.02,1.5-4.97,5.08-9.01,11.07-3.21,4.73-4.93,7.08-4.26,5.75.13-.26,1.37-4,2.76-8.34,1.37-4.34,2.71-8.03,3-8.21.74-.43-.3-1.41-1.15-1.11-1.45.56-7.56,13.35-13.09,27.4-1.54,3.91-2.8,7.08-2.89,7.04-.13-.17,5.23-21.17,6.49-25.56.52-1.72,1.11-3.26,1.32-3.52.65-.65.43-1.11-.48-1.11-1.11,0-2.45,2.37-4.84,8.3-1.02,2.54-2.28,5.15-2.8,5.8-.56.65-1.76,3.02-2.63,5.32-.91,2.24-2.11,4.56-2.67,5.19-.52.61-1.32,1.67-1.67,2.41-.39.69-.69,1.02-.69.65-.04-1.45,3.02-14.61,3.52-15.2.39-.52.39-.78,0-1.19-.61-.61-1.59-.09-2.8,1.5-.87,1.24-4.08,10.1-5.84,16.33-.65,2.24-1.41,4.34-1.72,4.69-.56.65-1.93,4.86-3.91,12.07-.56,2.15-1.11,3.74-1.11,3.52-.04-.26.43-3.52,1.02-7.25.61-3.74.96-6.91.87-7.04-.56-.56-1.76,1.02-2.71,3.65-.61,1.63-1.19,2.87-1.28,2.76-.13-.09,0-1.93.26-4.08.56-4.78.61-5.84.04-5.84-1.32,0-3.34,5.67-6.19,17.35-1.45,5.84-2.19,8.16-2.93,8.97l-1.04,1.15.26-1.11c.13-.61.65-3.08,1.19-5.49.52-2.41,1.32-5.67,1.85-7.21.65-2.06.78-2.89.39-3.02-.3-.09-.52-.91-.52-1.85,0-1.85-.52-2.54-1.19-1.63-.26.26-1.02,2.15-1.72,4.13-.65,1.98-1.32,3.56-1.37,3.47-.09-.09.17-1.67.52-3.6.35-1.89.65-3.52.65-3.6,0-.04-.26-.09-.61-.09-.74,0-2.32,3.56-5.08,11.29l-2.15,6.06.26-7.6c.26-7.9,0-9.19-1.32-5.84-1.54,3.82-5.15,24.28-7.34,41.5-.74,5.8-1.41,10.62-1.54,10.73-.3.35-.3.17.87-10.01,2.15-19.02,2.93-31.18,1.98-31.18-.61,0-1.24,1.76-2.19,6.36-.48,2.15-1.32,4.86-1.93,6.06-.56,1.15-1.67,4.69-2.45,7.9-.74,3.17-1.72,7.38-2.15,9.32l-.83,3.52v-3.74c-.04-5.75.52-11.12,1.15-11.34.87-.26.61-.96-.39-.96-.61,0-1.11.48-1.54,1.54-.74,1.8-1.76,8.12-2.19,13.7-.22,2.8-.48,4.08-1.11,4.73-1.11,1.24-1.98,5.23-3.69,17.09-.83,5.49-1.63,10.14-1.8,10.31-.26.26,0-16.24.3-17.48.09-.3-.04-.65-.3-.78-1.28-.43-2.19,4.6-3.87,21.17-.61,6.02-1.28,12.07-1.45,13.4l-.3,2.41-.3-2.41c-.17-1.32-.48-5.62-.65-9.58-.35-8.12-.87-9.06-2.37-4.17-1.59,5.08-2.19,19.2-1.37,29.99.35,3.95.26,4.78-.35,5.71-.52.83-.69,2.19-.74,5.71,0,2.54-.22,5.08-.48,5.71-.26.61-.61,1.93-.74,2.93-.35,1.89.3,12.2,1.24,20.41.43,3.82.43,4.73-.04,4.73-1.76,0-2.02,5.75-.78,16.85.35,3.17.93,8.82,1.32,12.55.35,3.74,1.15,9.97,1.76,13.79.61,3.87,1.11,7.82,1.11,8.77-.04,1.72-.09,1.63-1.5-1.93-2.41-6.23-3.43-8.38-3.95-8.21-.78.26-.35,3.82,1.5,12.55.96,4.47,1.67,8.17,1.59,8.25-.04.09-.65-1.19-1.32-2.87-1.93-4.73-4.21-7.73-4.21-5.49,0,.43,1.02,4.93,2.19,9.97,1.63,6.82,2.06,9.32,1.72,9.75-.3.35-.35,1.32-.17,2.45.43,2.89,2.41,13.22,2.67,14.05.17.52,0,.78-.48.78-.91,0-.74,1.93,1.15,13.83.65,4.34,1.04,7.99.87,8.12-.69.43-.78,3.78-.26,8.56.3,2.63.69,6.99.83,9.66l.22,4.84-.83-3.74c-1.72-7.34-2.28-9.23-2.89-9.23-.35,0-.61.13-.61.3,0,.22.39,6.28.87,13.53.48,7.25.87,14.94.87,17.13,0,4.65-.61,6.23-1.04,2.76-.96-7.34-2.15-7.38-2.45-.09-.17,4.26-.35,5.23-.87,5.23-.48,0-.74.74-.96,3.08-.13,1.67-1.11,5.84-2.11,9.23-4.39,14.57-4.56,14.94-3.08,5.84,1.41-8.88,2.24-19.2,2.5-31.53,1.19-53.66-12.33-101.22-39.52-139.17-10.66-14.85-26.56-30.97-41.76-42.35-22.04-16.46-42.37-26.8-73.81-37.46-11.81-4.04-33.55-9.27-59.15-14.22-13.53-2.63-28.86-6.06-35.7-7.99-9.53-2.67-20.11-7.04-25.78-10.66-6.32-4.04-17-16.07-22.52-25.34l-2.11-3.56.74-2.02c.83-2.32.87-3.43.22-3.65-.26-.09.22-1.28,1.11-2.71,2.54-4.21,3.13-6.84,1.19-5.67-.74.48-.74.39-.22-1.11.74-2.15.74-3.17,0-3.17-.52,0-.48-.43.22-2.41,1.02-2.87,1.02-3.3.22-3.3-.52,0-.43-.52.3-2.87.96-3,.78-3.82-.56-2.93-.78.48-.78.43.04-1.93.91-2.71.78-3.47-.48-2.8-.78.43-.78.35,0-2.41,1.15-4.04-.04-3.82-3.17.65-.74,1.11-.74,1.04-.17-.43,1.02-2.54,2.8-9.19,2.54-9.45-.52-.48-1.02-.13-2.28,1.63-1.5,2.06-1.54,1.93-.65-1.41.78-3,.83-3.52.09-3.52-.35,0-1.28,1.19-2.11,2.63-2.8,4.93-3.08,5.36-3.26,5.19-.13-.13.43-3.17,1.28-6.75,1.85-8.08,2.67-12.81,2.32-13.18-.56-.56-1.41.56-3.21,4.39-1.45,2.93-1.89,3.6-1.72,2.45,1.04-7.25,1.45-17.31.69-17.74-.56-.35-1.24.61-1.85,2.8l-.52,1.98-.39-2.41c-.61-4.3-1.32-6.58-1.89-6.58-.35,0-.69.43-.78.96-.09.56-.22-.39-.26-2.06-.09-4.08-.83-9.01-1.45-9.75-.69-.87-1.19.04-1.28,2.28-.04,1.37-.13,1.15-.43-1.11-.61-4.97-1.37-7.9-1.98-7.9-.48,0-.61,1.15-.65,5.36-.04,5.75-.22,5.49-1.28-2.5-.61-4.65-1.63-9.97-2.24-11.99-.43-1.32-1.72-2.02-1.72-.91,0,.26-.22.39-.48.3s-1.15-3.34-1.93-7.17c-1.85-9.1-2.71-12.07-3.56-12.07-.35,0-.78.43-1.02.96-.22.65-.43-.39-.65-3.3-.52-7.47-2.32-15.24-3.6-15.24-.48,0-.61.74-.65,3.17-.04,3.13-.09,3-1.24-3.82-1.37-7.82-2.06-10.45-2.8-10.18-.3.09-.56.83-.65,1.67-.04.83-.22,2.37-.35,3.47-.26,1.98-.3,1.93-1.28-2.45-1.04-4.52-2.11-7.21-2.87-7.21-1.28,0-1.5,2.37-1.8,19.33-.35,17.31-.48,18.94-1.89,23.06-1.02,2.87-2.45,12.81-4.43,29.86-1.8,15.81-1.93,16.63-2.32,16.24-.26-.26-.43-5.19-.48-14.22,0-2.11-.09-2.32-.87-2.11-.83.22-.83.04-.61-3.65.26-4.3,0-6.15-.96-6.15-.48,0-.65-.52-.65-2.15,0-2.24-.65-3.26-1.41-2.19-.22.39-.35-3.74-.26-10.94.13-10.73.09-11.6-.65-12.16-.69-.52-.74-.87-.3-4.21.22-2.02.43-4.6.43-5.71,0-3.78-.96-4.65-1.76-1.63-1.5,5.71-1.85,6.71-2.19,5.84-.17-.52-.35-3.87-.35-7.47,0-11.34-1.32-21.09-2.71-20.2-.39.22-.74,1.41-1.5,4.69-.52,2.28-1.02,1.24-1.28-2.63-.13-2.11-.43-4.34-.69-5.06-.46-1.24-1.24-1.59-1.54-.67h0l-.33.35ZM603.31,246.8c-.13.43-.22.17-.22-.52,0-.74.09-1.04.22-.78.09.3.09.93,0,1.32v-.02ZM602.85,252.08c-.09.69-.17.13-.17-1.19s.09-1.89.17-1.24c.09.72.09,1.76,0,2.41v.02ZM602.42,257.57c-.09.78-.17.26-.17-1.19s.09-2.11.17-1.45c.09.65.09,1.85,0,2.63v.02ZM601.98,264.15c-.09.78-.17.17-.17-1.41s.09-2.19.17-1.45c.09.78.09,2.11,0,2.87h0ZM587.09,352.99c0,.69-.09.65-.35-.22-.17-.61-.35-1.8-.35-2.63v-1.54l.39,1.76c.17.96.35,2.15.3,2.63h0Z"/>
  </g>
</svg>