<?xml version="1.0" encoding="UTF-8"?>
<svg id="Layer_1" xmlns="http://www.w3.org/2000/svg" version="1.1" viewBox="0 0 500 500">
  <!-- Generator: Adobe Illustrator 29.6.0, SVG Export Plug-In . SVG Version: 2.1.1 Build 207)  -->
  <defs>
    <style>
      .st0 {
        fill: #0f0b0d;
        fill-rule: evenodd;
      }

      .st1 {
        fill: #fff;
      }

      .st2 {
        display: none;
      }
    </style>
  </defs>
  <g id="BACKGROUND" class="st2">
    <rect class="st1" width="500" height="500"/>
  </g>
  <g id="OBJECTS">
    <path class="st0" d="M412.58,86.52c-.53,0-.7.83-.72,3.69v2.23l-.37-.88c-.58-1.39-1.07-1.07-1.32.88-.12.9-.32,1.69-.46,1.79-.14.09-.14.44.05,1.04.14.49.32,1.51.39,2.27.14,1.49.07,1.44-.81-.74-.49-1.18-.97-1.6-1.44-1.32-.16.12-.21,1.34-.14,3.59.09,2.95.07,3.36-.21,3.08-.81-.81-1.11.02-1.11,3.2,0,2.09-.02,2.2-.44,2-.23-.12-.51-.14-.6-.02-.12.09-.23,2.16-.28,4.55-.07,3.87-.12,4.41-.49,4.59-.21.14-.39.49-.39.79,0,.7-.37.76-.58.12-.46-1.42-1.18.32-1.39,3.36-.09,1.27-.32,2.6-.49,2.95-.19.35-.44,1.39-.58,2.32-.14.93-.3,1.95-.37,2.27l-.12.58-.25-.7c-.6-1.86-1.23-1.72-1.42.28-.07.88-.19,2.41-.28,3.43l-.16,1.86-.32-1.16c-.42-1.46-.65-1.72-1.14-1.25-.25.28-.42,1.23-.58,3.59-.12,1.76-.37,3.85-.56,4.64-.19.76-.35,1.6-.35,1.83s-.21.65-.44.9c-.53.58-1.21,2.71-1.74,5.59-.23,1.14-.6,2.99-.86,4.08-.3,1.42-.44,2.97-.46,5.33l-.02,3.34-.42-1.86c-.81-3.5-1.97-6.43-5.52-13.96-4.18-8.81-9.97-18.55-15.14-25.37-1.65-2.16-3.87-5.77-5.66-9.14-.74-1.42-2.09-3.85-3.01-5.45-1.11-1.95-2.34-4.59-3.71-8.05-1.11-2.83-2.16-5.31-2.3-5.54-.56-.74-.83-.14-.83,1.79,0,1.44-.07,1.83-.32,1.83-.42,0-.72,2.13-.51,3.62.07.56.09,1.02.02,1.02-.05,0-.32-.53-.6-1.16-.28-.65-.63-1.14-.76-1.09-.28.09-.35,5.01-.09,6.54l.19.93-.56-.7c-.3-.39-.65-.6-.74-.51-.12.12-.16.9-.12,1.81.05,1.39.02,1.6-.35,1.6s-.37.25-.25,3.18c.07,1.76.25,3.8.39,4.55.19,1,.19,1.44,0,1.67-.19.21-.19.67-.05,1.51.21,1.14.21,1.16-.21.79-.63-.56-.79-.25-.51.93.19.86.16,1-.14.97-.51-.02-.39,1.46.49,5.77.39,1.9.74,3.74.81,4.06s-.28-.09-.74-.93c-1.39-2.44-1.97-2.9-1.97-1.58,0,.67.46,2.99.83,4.18.09.28,0,.42-.25.42-.35,0-.37.16-.23,1.3.07.7.42,2.34.72,3.62.3,1.3.51,2.39.44,2.46s-.12.02-.12-.09c0-.46-.97-1.76-1.16-1.58-.21.21.25,4.15.58,5.03.12.28.05.39-.21.39-.51,0-.49,2.69.07,5.52.25,1.32.32,2.2.19,2.3-.12.07-.16.46-.09.9.09.46.02.79-.14.86-.21.07-.09.81.37,2.6.63,2.46.65,3.01.12,2.48-.79-.79-.86.21-.19,2.16.25.74.42,1.42.35,1.46-.07.07-.12,0-.12-.14,0-.16-.16-.28-.35-.28-.46,0-.44.21.21,2.16.3.93.67,2.39.83,3.29.56,3.08,1.3,4.96,3.39,8.58,1.46,2.55,3.76,9.41,4.43,13.22l.21,1.16-1.97,2.67c-9.97,13.61-14.12,16.81-25.74,19.88-8.74,2.3-14.68,2.46-23.66.63-5.29-1.07-13.94-4.27-20.55-7.56-9.32-4.69-16.28-7.42-27.53-10.85-2.34-.72-2.53-.81-3.11-1.72l-.63-.95.97.93c.51.49.95.76.95.6,0-.32-2.37-3.8-5.68-8.37-1.97-2.69-2.69-3.76-2.39-3.48.39.35,5.73,6.84,6.66,8.05,1.11,1.53,1.42,1.74,1.42,1.04,0-.42-1.81-3.62-3.18-5.64-1.39-2.09-1.11-1.88,1.6,1.11.49.56.95,1,1,1,.6,0-.95-2.41-4.43-6.77-3.71-4.69-3.96-5.06-2.09-3.08.97,1.02,2.11,2.34,2.53,2.95.72,1.04,1.32,1.44,1.32.81-.02-.9-2.18-4.43-4.59-7.47-.7-.9-1.39-1.79-1.53-1.97-.32-.44,2.32,1.83,3.08,2.64.6.63.95.76.95.37,0-.14-.35-.79-.76-1.46-1.18-1.88-1.21-1.95-.32-1.11.46.44.93.74,1.02.65.25-.25-.37-1.2-1.93-2.9-.81-.9-1.49-1.69-1.49-1.79s.53.3,1.18.86c1.67,1.44,2,1.65,2.16,1.39.21-.35-1.6-2.67-4.29-5.47l-2.41-2.55,1.55.86c.83.46,1.6.86,1.67.86s.14-.21.14-.44-.58-.97-1.27-1.6c-.7-.65-1.27-1.37-1.27-1.6,0-.49-1.51-2.02-3.48-3.55-1.25-.95-1.25-.97-.49-.81.7.14.76.12.63-.23-.12-.32-.05-.37.37-.23,1.21.37,1.58.39,1.58.12,0-.6-3.2-2.78-7.07-4.8l-2.78-1.46,1.49.05c1.83.09,2.09-.3.6-.88-.83-.3-1-.44-.72-.6.6-.32.44-.56-.97-1.46-1.25-.79-1.16-.93.35-.46.16.05.35,0,.42-.12.16-.25-.86-.81-3.13-1.65-2.06-.76-1.86-.88.35-.19,1.58.49,1.88.46,1.67-.09-.09-.25-2.9-1.83-4.57-2.55-.25-.12-.28-.19-.07-.3.51-.23.32-.72-.46-1.23l-.74-.49h.65c1,0,.72-.7-.53-1.39-.58-.32-1.37-.9-1.74-1.3-.51-.53-1.16-.83-2.37-1.16-1.18-.3-1.6-.51-1.53-.74.16-.39-.63-1.14-1.65-1.55-.44-.19-1.9-.44-3.29-.58-1.37-.12-2.53-.28-2.6-.35s1.09-.12,2.57-.12c1.62,0,2.71-.09,2.71-.23,0-.12-.28-.39-.65-.63-.35-.21-.67-.42-.72-.46-.05-.02.05-.21.21-.42.44-.53-.74-.88-2.62-.74-1.65.14-1.93.05-.97-.3.79-.3.74-.86-.12-1.04-.6-.14-.65-.21-.42-.58.37-.58.12-.79-.97-.81-.63,0-.93-.09-.93-.32,0-.25-.32-.3-1.51-.21-1.32.12-1.51.09-1.46-.25.05-.28-.16-.39-.93-.44-.81-.07-.97-.16-.97-.56,0-.42-.12-.46-1.04-.37-.58.05-1.04.05-1.04.02,0-.05.21-.46.46-.93.63-1.18.28-1.42-1.02-.65-1.18.7-1.42.65-1.62-.28-.37-1.69-1.53-1.93-1.53-.32,0,1.42-.39,1.34-.51-.12-.12-1.37-.76-2.53-1.44-2.53-.21,0-.58-.35-.83-.76-.25-.39-.65-.74-.88-.74-.28,0-.65-.49-1.16-1.51-.46-.95-.88-1.51-1.11-1.51-.32,0-.37.21-.23,1.44.12,1.16.09,1.37-.12,1-.81-1.39-2.16-2.9-2.62-2.9-.32,0-.72-.37-1.18-1.04-.65-.97-1.11-1.27-1.34-.88-.07.12.14,1.16.44,2.37.32,1.18.53,2.23.46,2.27-.05.07-.39-.3-.76-.83-.35-.51-1.11-1.62-1.69-2.46-.58-.81-1.18-1.51-1.34-1.51-.37,0-.37.02.3,1.67.32.79.58,1.46.58,1.51,0,.02-.37-.12-.83-.32-.65-.32-.97-.72-1.58-2.04-.42-.88-.97-1.88-1.23-2.18-.51-.6-1-.51-1,.21,0,.37-.16.28-.79-.42l-.81-.86-.21.58-.23.58-.28-.7c-.3-.83-1.34-1.97-1.79-1.97-.21,0-.3.37-.3,1.21v1.23l-.6-1.27c-.72-1.58-1.62-2.78-2.09-2.78-.39,0-.42.51-.07,2.09.14.65.21,1.25.14,1.3-.05.07-.44-.46-.83-1.18-.86-1.51-2.48-3.36-2.95-3.36-.37,0-.42.42-.12,1.21.63,1.72.51,1.74-1,.23-1.18-1.16-1.62-1.46-2.09-1.39-.37.05-.79-.14-1.23-.53-.35-.35-.93-.79-1.27-1.02-.6-.37-.65-.37-.79,0-.09.21.02.74.23,1.18s.37.86.37.93-.81-.56-1.79-1.39c-1.67-1.44-4.15-2.92-4.87-2.92-.56,0-.3.56.79,1.67.6.6,1.05,1.11.97,1.11-.09,0-.9-.63-1.86-1.39-2.04-1.67-4.96-3.22-5.36-2.83-.19.19.09.6,1,1.58l1.25,1.34-1.04-.6c-.58-.32-2.02-1.09-3.22-1.69-1.83-.9-2.34-1.07-3.08-.97-.63.09-1.23-.02-1.88-.32-1.6-.72-2.6-.44-1.74.46.25.25.21.28-.19.16-1.72-.51-5.13-1.3-5.68-1.3-.74,0-1.04.3-.6.63.14.12.95.46,1.79.76,2.09.76,6.19,2.53,5.91,2.55-.12,0-1.02-.25-1.97-.56-3.32-1.05-4.94-1.3-5.22-.86-.07.14.05.32.28.44.25.16-.58.19-2.48.12-2.83-.12-4.38.12-4.08.6.07.12.65.28,1.27.37.63.09,1.65.3,2.27.49.79.23.88.28.3.21-7.1-1.07-13.47-1.42-15.49-.83-1.27.35-1.16.81.21.9,1.79.09,4.75.53,5.1.76.19.12.28.21.21.21-.07.02-2.46.12-5.33.23-5.1.19-6.82.46-6.33.95.14.14.86.3,1.6.37,2.23.21,2.27.51.07.53-6.08.02-15.05,1.27-15.05,2.11,0,.21,2.44.16,6.84-.14,1.25-.09,1.53-.05,1.18.14-.23.14-1.69.35-3.25.46-7.38.56-12.66,1.62-12.66,2.57,0,.19.65.21,2.25.09,1.23-.09,2.18-.09,2.09,0-.07.09-1.53.51-3.22.95-2.99.76-3.69,1.05-3.36,1.39.14.14,4.75-.21,6.96-.53.67-.12.83-.07.74.21-.09.19-.79.44-1.81.63-2.2.39-4.38,1.04-8.74,2.67-4.22,1.55-5.33,2.09-5.33,2.55,0,.25.16.28.74.09.42-.12.81-.21.86-.21.07,0-1.04.58-2.46,1.27-2.53,1.27-5.15,3.29-4.55,3.52.16.05,1.23-.28,2.39-.74,1.18-.46,2.16-.81,2.23-.76.05.07-.83.6-1.95,1.23-5.26,2.92-10.78,6.68-12.52,8.51-.79.83-1.23,2.44-.74,2.74.12.07-.63.74-1.67,1.46-3.8,2.57-6.65,5.31-6.35,6.1.05.14-.63.65-1.55,1.16-1.97,1.07-5.29,4.11-4.89,4.48.16.19.79-.07,2.2-.9,1.07-.63,2.09-1.16,2.25-1.16.19,0-1.02,1.07-2.67,2.37-4.94,3.94-8.65,7.75-9.53,9.76-.49,1.14.25,1.02,1.42-.23.58-.63,1.55-1.49,2.16-1.9l1.09-.79-1.44,1.79c-.76,1-1.53,2.02-1.69,2.3-.14.28-1.02,1.34-1.97,2.37-1.46,1.58-6.1,8.07-6.5,9.07-.23.65.76.32,1.55-.49.44-.44.86-.81.97-.81.25,0-.81,1.72-4.36,6.96-3.59,5.36-4.73,7.26-5.66,9.56-.88,2.25-1.14,3.66-.6,3.66.19,0,.42-.25.51-.58.25-1.04,5.31-8.65,5.59-8.4.05.05-.67,1.34-1.58,2.85-2.57,4.22-3.99,7.33-4.06,8.88-.02.72-.21,1.93-.42,2.69-.44,1.67-.46,1.97-.07,1.97.16,0,.44-.39.6-.88.35-.95,1.65-3.39,2.2-4.11.25-.29.3-.25.16.12-.12.32-.46,1.16-.79,1.86-.79,1.79-1.95,5.36-2.37,7.38-.63,3.04-.3,5.57.35,2.76.16-.65.56-1.95.86-2.83.6-1.69,2.95-6.56,3.36-6.96.12-.14-.07.39-.46,1.16-2.11,4.24-4.45,11.34-4.45,13.47,0,1.16.3,1.32.67.37l.25-.63-.12.6c-.65,3.43-.79,7.17-.28,7.17.21,0,.42-.63.6-1.93.28-1.81,1.86-7.07,2.34-7.82.32-.49.3-.28-.23,1.9-.86,3.55-1.44,8.28-1.51,12.25-.05,2.11-.19,4.71-.32,5.8-.58,4.85-.53,8.53.12,8.74.16.05.32-.42.44-1.25.09-.74.56-3.27,1.07-5.64,1.46-6.84,1.88-8,1.37-3.71-.39,3.11-.65,14.36-.44,18.09.23,4.34,1,8.05,1.6,7.84.14-.05.28-2.34.35-5.87.09-4.99.37-8.88.58-8.12.02.12.07,3.52.09,7.54.05,6.19.12,7.51.46,8.7.23.76.56,2.71.72,4.36.39,3.59.72,5.36,1.27,7.14.51,1.67,1.53,3.46,1.97,3.46.19,0,.39.28.49.63,1.07,4.69,2.83,9.28,3.36,8.72.09-.09-.07-1.02-.37-2.04-.46-1.65-.93-4.03-1.39-7.31-.28-2.06.35-.58,1.16,2.69,1.53,6.26,3.96,13.31,4.59,13.31.25,0,.23-.07-.74-3.83-.39-1.53-.72-2.95-.72-3.13s.56,1.11,1.25,2.9c2.06,5.45,4.69,10.55,5.4,10.55.16,0,.72.9,1.25,2.02,1.14,2.48,2.53,4.71,2.97,4.71.16,0,.25-.14.19-.3-.07-.14-.7-1.72-1.44-3.48-.72-1.76-1.27-3.32-1.23-3.45.12-.3.81,1.09,1.88,3.66,1.83,4.43,3.69,6.63,2.48,2.95-.3-.86-.58-1.74-.65-1.93-.05-.19.3.28.79,1.04,1.9,3.01,4.89,6.35,5.13,5.75.07-.16.81.6,1.67,1.74,1.76,2.25,5.24,5.7,6.03,5.96.63.19.9-.02.53-.39-.42-.42-.32-.63.23-.49.3.07,1.25.83,2.16,1.67,2.95,2.81,5.1,4.22,5.64,3.69.16-.16.65.12,1.53.83,1.49,1.21,2.2,1.62,2.41,1.42.07-.07.02-.35-.14-.58-.25-.42-.21-.46.3-.46.42,0,.58-.12.58-.46,0-.42.23-.3,1.53.7,1.46,1.11,2.18,1.42,2.18.9,0-.14.44.12.97.53,1.51,1.18,2.2,1.58,2.85,1.58.7,0,.72-.09.09-.97l-.51-.7.72.37c.83.42,1.44.49,1.44.14,0-.16.14-.16.44-.02.72.39,1.04-.28,1.04-2.06v-1.55l.44.53c.23.3.53.51.63.44.19-.12.12-4.01-.12-6.68-.12-1.3.12-1.39.65-.25.23.44.51.79.65.74.3-.09.3-.12.09-1.74-.12-.9-.07-1.34.12-1.46.21-.14.23-.67.05-2.23-.14-1.14-.32-2.85-.39-3.83-.12-1.55-.09-1.79.25-1.74.3.02.37-.35.46-2.41.05-1.34.16-2.9.28-3.48l.19-1.04.16,1.23c.21,1.44.53,2.37.83,2.37.12,0,.28-1.02.37-2.27.16-2.18.19-2.23.44-1.34.3,1.09.83,1.39.83.49s1.14-6.38,1.42-6.82c.19-.3.21-.25.12.21-.21.97-.58,3.76-.67,5.06-.07,1.04-.05,1.21.28,1.16.25-.05.72-1.07,1.42-3.08.95-2.76,1.04-2.95,1.11-2.09.12,1.37.44,1.53.9.39.23-.51.58-1,.79-1.04s1.02-1.37,1.81-2.92c.79-1.53,1.46-2.81,1.51-2.81s.07.53.05,1.21c-.05,1.9.49,1.72,1.69-.63.56-1.09,1.07-1.93,1.11-1.9.05.05-.09.56-.28,1.11-.53,1.44-.7,3.71-.35,4.36.32.63.53.46.93-.79.51-1.65,1.58-3.5,3.18-5.64,1.49-1.97,4.89-5.73,5.06-5.57.05.05-.28,1.95-.72,4.24-2.25,11.78-2.6,17.65-1.58,26.32.97,8.53,2.99,16.26,5.68,21.92,2.27,4.8,7.93,11.57,12.71,15.19l.79.6-1.23,1.25c-1.3,1.37-3.59,4.69-4.57,6.59-.35.65-.86,2.18-1.18,3.39-.97,3.73-.97,5.47.07,6.59.7.76,1.14.76,1.88.02.49-.49.67-.53,1.07-.32.74.39,1.97.02,3.01-.9l.93-.83-.21,1.37c-.19,1.46-.16,6.49.07,8.19.07.65.35,1.23.79,1.67.7.7,1.16.88,1.16.46,0-.14.14-.23.32-.23.46,0,.86-.58,1.3-1.93.37-1.14.44-1.21,1.32-1.32.49-.07,1.23-.37,1.6-.63.76-.56,1.81-2.6,2.06-4.08.09-.46.25-.86.35-.86s.23.39.3.86c.25,1.51,1.3,3.32,2.39,4.08.65.46,1.11,1.02,1.34,1.67.44,1.14,1.37,2.09,1.83,1.9.19-.07.46-.67.63-1.32.23-.93.51-1.42,1.32-2.16,1.14-1.04,1.74-2.04,2.16-3.64.14-.58.42-1.21.6-1.42s.53-1.14.76-2.09c.25-.95.51-1.55.58-1.37.07.19.39,1.27.72,2.44,1.25,4.43,3.25,7.31,5.61,8.14.67.23,1.23.51,1.23.6,0,.35.76.88,1.27.88.95,0,1.51-1.32,1.9-4.43.21-1.74-2.39-12.57-3.74-15.59-.46-1.02,3.66-1.62,9.37-1.3,5.73.3,8.35.63,13.8,1.72,2.81.56,6.52,1.18,8.23,1.37,3.71.44,9.88.79,11.36.67,8.91-.72,11.13-1.51,28.3-10.3,4.71-2.41,6.4-3.15,9.97-4.34,5.01-1.65,6.91-2.06,10.76-2.37,3.36-.25,7.79-.3,8.16-.05.37.23.81,1.86.53,2.04-.12.07-.21.46-.21.86l-.02.74-.46-.65c-1.18-1.55-1.53-.16-.53,2.13.63,1.42.63,2.41,0,1.9-.35-.3-.6-.12-.6.44,0,.21.42,1.23.93,2.27.67,1.42.81,1.9.58,1.9-.88,0-.05,1.6,2.13,4.03.53.6,1,1.27,1,1.46s.3.79.7,1.34c.37.56.7,1.21.7,1.46s.46.97,1.02,1.6c.88.97.97,1.18.67,1.37-.6.37.21,1.74,2,3.32.83.76,1.79,1.65,2.09,1.95,2.46,2.55,3.48,3.71,3.36,3.92-.07.12.12.6.44,1.07.3.49.63,1.09.72,1.37.19.58,4.41,4.69,5.73,5.57.56.35,2.39,2.44,4.43,5.03,7.82,9.83,13.54,16.12,17.77,19.43,2,1.58,4.38,2.71,6.82,3.25.67.14,1.25.28,1.27.3.02,0-.16.63-.42,1.39-.67,2.06-.81,4.34-.35,6.15.21.81.56,1.67.76,1.9.49.53,1.27.53,1.79-.02.3-.35.6-.42,1.18-.32,1.42.23,2.27-.28,4.29-2.53,2.06-2.27,3.22-3.96,3.96-5.71.49-1.16,1.23-1.88,1.9-1.9.23,0,1.16.37,2.09.83,1.34.67,2.18,1.37,4.34,3.55,2.13,2.16,3.01,2.88,4.41,3.59,1.11.58,2.2,1.39,3.01,2.23,1.55,1.62,3.39,2.44,5.17,2.25.97-.09,1.21-.02,1.69.46,1.69,1.69,2.92-1.21,1.6-3.69l-.58-1.09,1.18.74c1.6,1,3.8,1.16,5.29.39.9-.44,1.02-.46,1.39-.14,1.58,1.44,2.18-1.62.83-4.27-.3-.63-.88-1.37-1.3-1.67l-.72-.58.83-.49.86-.51,1.02.49c.56.25,1.11.42,1.23.35.37-.23.53-1.6.28-2.46-.25-.93-1.65-2.41-2.78-3.01s-3.92-3.52-5.15-5.45c-.58-.9-1.6-2.67-2.3-3.92-1.53-2.83-3.11-4.59-4.5-5.15-.97-.35-1.11-.35-2.25.02-.65.21-2.2.86-3.41,1.42-2.44,1.14-4.36,1.72-5.73,1.72-.83,0-.95-.09-1.39-1-.28-.53-1.18-2.3-2.02-3.9-1.74-3.34-4.03-10.11-4.94-14.59-1.62-7.86-1.23-15.65,1.23-24.12.67-2.37,5.52-15.24,5.84-15.61.09-.09.86.76,1.72,1.9,1.21,1.65,1.42,2.04.95,1.83-.39-.19-.65-.19-.81-.02s.09.51.83,1.11c1.16.97,1.23,1.27.14.72-.44-.23-.74-.28-.83-.14-.19.3.49,1.23,2.06,2.78.72.7,1.3,1.39,1.3,1.53,0,.16.51.74,1.16,1.32.67.6,1.16,1.25,1.16,1.53,0,.3.6,1,1.67,1.9.93.81,1.72,1.65,1.76,1.88.05.25.93,1.07,1.97,1.86,1.04.76,2.04,1.6,2.2,1.86.19.23,2.16,1.65,4.43,3.13,2.37,1.55,4.45,3.08,4.96,3.69.95,1.07,3.8,3.06,6.08,4.22,3.39,1.72,12.87,8.44,17.26,12.25,1.49,1.27,4.62,3.94,6.98,5.91s4.94,4.29,5.75,5.1c1.46,1.55,3.43,2.76,4.45,2.76.3,0,.93.25,1.37.56,1.11.74,2.39,1,2.78.51.23-.28.21-.49-.12-1.04l-.42-.72.72-.74c1-1.07,1.53-2.2,1.55-3.36.02-1.21-.02-1.18,3.04-.32,3.69,1.07,5.03,1.72,6.54,3.22,2.25,2.23,6.26,3.96,9.42,4.08,1.34.05,1.65.14,2.23.7.39.37.83.6,1.02.53.49-.19.63-1.25.28-2.53-.25-1.02-.25-1.11.09-.97,2.18.95,2.99,1.11,5.59,1.11,2.02,0,2.92-.12,3.71-.44,1.34-.53,2.37-.51,3.39.09,1,.58,1.25.46,1.25-.53s-.9-2.16-2.78-3.57c-.83-.63-1.67-1.32-1.86-1.55-.32-.39-.3-.42.3-.25,2.37.58,6.03.28,7.89-.67,1.02-.51,1.23-.56,2.16-.32,1.25.32,1.53.14,1.53-1.07,0-1.11-1.14-2.32-2.6-2.76s-4.92-2.71-6.7-4.41c-1.99-1.93-4.11-4.66-5.71-7.45-1.53-2.67-1.99-3.25-3.18-3.85-1.25-.65-2.25-.56-3.45.28-2.95,2.04-5.7,3.8-7.49,4.76l-2.02,1.07-3.76-.49c-5.03-.67-5.47-.88-8.65-4.38-3.76-4.15-7.65-9.39-9.09-12.25-1.97-3.92-5.26-13.06-6.66-18.51-2.41-9.46-3.08-18.51-1.76-23.45.76-2.83,3.48-10.81,5.47-16.19l1.81-4.8h1.07c4.59,0,15.19-2.64,21.92-5.43,2.04-.86,8.42-4.34,9.76-5.36.42-.3,1.23-.58,1.97-.67,3.45-.44,7.68-2.02,10.76-4.01,1.65-1.04,4.5-3.78,6.7-6.45.65-.76,1.69-1.69,2.34-2.06s1.48-.9,1.88-1.18c.37-.28,1.37-.86,2.2-1.3,3.34-1.72,5.96-5.29,7-9.56.44-1.83.46-2.2.21-3.48-.37-1.88-1.25-3.71-2.32-4.75-.46-.46-2.04-1.86-3.48-3.06-5.43-4.55-6.24-5.82-8.12-12.64-1.37-4.94-1.72-5.82-4.55-11.6-3.76-7.63-6.7-11.92-11.09-16.12-6.87-6.56-9.83-9.67-11.22-11.78-1.74-2.57-1.88-3.2-1.25-5.08,1.14-3.36,2.13-10.46,2.85-20.02.37-5.17.37-20.43,0-24-.74-7.17-2.13-13.08-5.15-21.99-1.14-3.34-2.34-7.17-2.69-8.49-.6-2.37-1.67-5.31-3.06-8.49-.39-.9-1.09-2.85-1.58-4.38-.46-1.51-1.16-3.36-1.53-4.11-.49-.89-.86-1.35-1.13-1.35l.05-.07ZM71.58,135.83c.32-.14.35-.12.14.12-.16.16-.35.23-.42.16-.07-.07.05-.21.28-.28ZM66.85,141.88c-.65.63-1.74,1.34-2.37,1.62-1.53.65-1.32.32.74-1.07,2.48-1.65,3.02-1.83,1.62-.56h.01ZM392.26,160.8c.07-.09.14.05.12.3,0,.25-.07.32-.14.14-.07-.16-.05-.37.02-.44h0ZM43.42,264.73c.05-.07.16.44.25,1.09s.12,1.23.07,1.3c-.07.05-.19-.44-.28-1.09s-.11-1.23-.05-1.3h0ZM43.91,267.49c.07-.09.14.05.12.3,0,.25-.07.32-.14.14-.07-.16-.05-.37.02-.44Z"/>
  </g>
</svg>