<?xml version="1.0" encoding="UTF-8"?>
<svg id="Layer_1" xmlns="http://www.w3.org/2000/svg" version="1.1" viewBox="0 0 500 500">
  <!-- Generator: Adobe Illustrator 29.6.0, SVG Export Plug-In . SVG Version: 2.1.1 Build 207)  -->
  <defs>
    <style>
      .st0 {
        fill: #0f0b0d;
        fill-rule: evenodd;
      }

      .st1 {
        fill: #fff;
      }

      .st2 {
        display: none;
      }
    </style>
  </defs>
  <g id="BACKGROUND" class="st2">
    <rect class="st1" width="500" height="500"/>
  </g>
  <g id="OBJECTS">
    <path class="st0" d="M62.6,86.36c.15.15.26.79.26,1.43,0,1.68-.81,9.91-1.28,13.13-.4,2.64-.4,3.43-.21,16.19.11,7.39.26,14.04.32,14.81s.26,4.07.43,7.35c.19,3.26.4,6.03.49,6.12.11.11.73-.06,1.41-.38,1.88-.85,3.45-.68,7.33.75,1.77.68,3.13,1.07,3.24.96.28-.28,1.02-8.33,1.17-12.66.21-5.73.7-12.53,1.21-16.3.32-2.47.43-4.18.36-6.18-.15-4.75-.06-7.18.32-8.84.55-2.43.87-5.29,1.32-12.15.13-1.85.26-2.34.57-2.34.51,0,1.26,1.75,1.56,3.6.08.55.38,1.19.75,1.62.32.36.77,1.21.98,1.87.28.87.51,1.21.85,1.32.28.06.62.38.79.7.34.66,1.13,3.6,1.24,4.62.04.49.19.66.55.7.38.06.64.36,1,1.21.28.62.57,1.47.64,1.9.17.85.53,1.26.53.57s.79-.57,1.15.13c.38.77.7,2.41.98,5.18.15,1.24.28,2.26.32,2.3s.24-.21.43-.6c.38-.75.77-.75.98.02.08.28.17,3.96.19,8.18l.02,7.67.45-1.17c.24-.64.58-1.58.77-2.09.36-1.07.98-1.21,1.19-.32.53,2.49.28,8.5-.53,12.21-.23,1.11-.57,3.41-.75,5.11-.15,1.7-.4,3.71-.51,4.48-.51,3.09-.6,2.68.92,4.92.75,1.13,1.68,2.83,2.05,3.77,1.09,2.83,2.37,10.66,2.37,14.47v1.51l.96.47c1.51.75,2.64,2.37,3.39,4.94.49,1.7.43,3.24-.19,4.75-.3.7-.53,1.45-.53,1.64,0,.21.58,1.62,1.28,3.11,2.24,4.86,3.11,8.61,2.92,12.59l-.13,2.62.81,1.11c.45.6,3.24,3.54,6.2,6.52,2.96,2.98,6.75,7.05,8.44,9.06,1.68,1.98,3.99,4.73,5.11,6.07,5.14,6.12,6.39,7.52,8.86,9.95,2.81,2.77,5.84,5.43,10.29,8.99,9.55,7.67,18.03,16.62,26.77,28.26,5.48,7.29,12.53,19.5,16.15,27.96,1.47,3.47,4.41,11.27,5.61,14.87,2.09,6.33,3.15,12.91,3.15,19.5,0,1.81.08,3.22.21,3.3.83.51,7.42-4.45,10.7-8.1,5.37-5.95,12.76-13.68,14.51-15.17,2.15-1.83,2.81-1.41,1.51.94-.45.79-.96,1.68-1.15,1.98s-.68,1.11-1.07,1.81l-.7,1.28.58-.53c.34-.3,2.28-2.41,4.35-4.69,5.77-6.37,7.65-8.25,7.95-7.95.28.28.17.85-.55,2.51-.34.83-.3.81,1.43-.85,6.8-6.58,8.2-7.84,8.55-7.72.15.04.23.4.19.79-.03.45.61.09,1.9-1.09,9.33-8.52,15.68-12.93,16-11.08.04.32.62-.06,2.94-1.92,4.71-3.81,7.95-5.94,8.97-5.94.34,0,.43.11.34.43-.06.23-.06.43-.02.43.06,0,1.02-.55,2.17-1.26,4.01-2.41,6.84-3.37,7.65-2.56.19.19.68,0,1.92-.7,3.71-2.15,7.91-3.99,8.39-3.69.38.23.19.75-.4,1.13-1.04.62-4.3,3.13-4.3,3.28,0,.08.55-.08,1.21-.38,5.11-2.35,12.25-4.92,14.21-5.14.6-.06,1.7-.43,2.47-.81,4.54-2.26,12.42-3.81,15.83-3.11.79.17,1.3.4,1.43.66.13.23.34.36.49.32.13-.04,1.6-.28,3.24-.51,6.2-.87,10.55-1.34,14-1.45,3.49-.13,3.58-.11,3.58.3,0,.34-.26.51-1.24.79-.66.21-1.34.4-1.49.47-.83.26.28.47,3.09.57,3.56.15,8.37.66,9.97,1.09,1.26.32,1.64.98.55.98-.73,0-1.07.34-.51.51.21.06.85.17,1.45.23,3.35.43,8.65,1.75,9.67,2.39.28.17,1.96.7,3.75,1.15,3.09.77,5.24,1.45,6.99,2.19.85.38,1.02.87.4,1.32-.3.23-.32.28-.04.38,7.76,2.73,8.82,3.15,11.34,4.41.89.45,1.7.92,1.77,1.07.3.47-.23.64-1.45.45-.68-.11-1.21-.17-1.21-.13,0,.02,2.05,1.07,4.52,2.3,2.64,1.3,5.16,2.71,6.03,3.37.81.62,3.18,2,5.22,3.05,5.5,2.86,7.88,4.43,7.88,5.29,0,.38-.11.4-1.13.28-.6-.06-1.34-.19-1.64-.28l-.53-.13.53.6c.3.32,1.38,1.17,2.45,1.88,3.11,2.09,6.54,4.71,7.54,5.75.79.81.89,1.04.68,1.3-.23.28-.45.23-1.66-.21-.77-.3-1.43-.49-1.49-.45-.04.06.81.85,1.9,1.77,4.69,3.94,6.35,5.45,6.35,5.8,0,.21.7.92,1.54,1.58.85.68,2.17,1.79,2.94,2.51,1.24,1.15,1.34,1.3,1.04,1.6-.3.3-.43.3-1.26,0-1.88-.66-1.32-.17,3.15,2.77,1.66,1.09,2.6,1.83,2.6,2.07,0,.51-.38.49-2.28-.17-.87-.3-1.64-.49-1.73-.43-.06.08.4.6,1.04,1.13,2.15,1.85,6.63,6.35,7.91,7.93.85,1.07,1.24,1.7,1.17,1.98-.08.3.53.92,2.68,2.64,4.37,3.49,8.08,6.82,8.48,7.61.38.7-.38.64-1.75-.17-.73-.43-1.36-.7-1.43-.64-.06.06.64.92,1.58,1.88,3.92,4.01,7.33,8.01,7.33,8.59,0,.43-.51.38-1.32-.13-.38-.23-.77-.43-.87-.43-.08,0,.98,1.51,2.39,3.37,3.75,4.97,6.41,9.18,6.41,10.1,0,.57-.77.47-1.28-.19-.92-1.17-3.64-3.96-3.75-3.84-.06.06.28.81.75,1.68.47.85,1.38,2.75,2.05,4.22,3.02,6.73,3.54,7.65,6.01,10.85,1.32,1.68,2.41,3.26,2.41,3.47,0,.49-.68.51-1.43.02-.51-.34-.55-.34-.81,0-.15.19-.36.36-.49.36-.21,0-2.22-1.09-3.32-1.81-.73-.49-.7-.4.73,1.56.68.96,1.32,1.56,2.34,2.15,1.77,1.07,2.77,2,2.77,2.6,0,.4-.08.45-.64.32-1.94-.4-1.98-.34-.3.49,1.98.98,2.37,1.32,1.92,1.7-.23.19-.68.17-2.02-.08-2.37-.49-2.66-.34-1.04.51,1.88.98,2.17,1.21,2,1.64s-.34.4-5.14-.66c-2-.43-3.86-.83-4.16-.89l-.53-.08.47.38c.26.21.68.53.94.73.77.53.4,1.09-.6.94-1.51-.23-4.22-.75-7.95-1.49-3.71-.75-5.13-.92-4.48-.55.17.11,3.09,1.11,6.5,2.26,3.39,1.15,6.31,2.19,6.48,2.35.15.15.21.38.15.51-.36.58-4.43.06-11.93-1.47-1.75-.34-3.22-.6-3.26-.55s1,.53,2.32,1.09c4.39,1.85,6.56,3.05,6.56,3.67,0,.28-.19.32-1.24.21-.66-.06-1.79-.28-2.49-.45-.7-.17-2.58-.62-4.16-1-1.58-.36-3.99-.94-5.33-1.28-1.34-.32-2.47-.55-2.54-.51-.04.06.53.36,1.28.7.75.34,2.79,1.28,4.56,2.07,3.54,1.6,3.71,1.7,3.37,2.05-.38.38-3.35-.08-8.31-1.3-2.41-.6-4.41-1.04-4.45-1-.11.11,1.73,1.15,3.75,2.17,1.32.66,1.6.96,1.21,1.32-.43.43-2.47,0-6.61-1.36-5.43-1.81-5.22-1.77-3.62-.68,2.68,1.79,4.33,3.05,4.33,3.3,0,.66-1.6.4-4.24-.66-.75-.3-1.38-.51-1.45-.47-.04.06.3.4.79.79,1.85,1.47.77,1.66-2.79.51-1.3-.4-2.41-.7-2.47-.66-.04.06.68.7,1.62,1.41.96.73,1.73,1.45,1.73,1.62,0,.6-1.36.32-3.71-.75-1.28-.6-2.34-1.07-2.39-1.07s-.08.19-.08.4-.13.45-.28.51c-.83.32-4.01-.68-6.95-2.17-.51-.26-.96-.43-1.02-.36-.06.06.49.77,1.26,1.58,1.7,1.81,3.71,4.3,4.05,5.05.32.7,0,1.11-.64.77-.23-.13-1.62-1.15-3.07-2.3-6.1-4.79-11.95-9.23-12.06-9.14-.06.06.17.51.51.98,1.21,1.7,2,3.09,2,3.56,0,.85-.85.55-2.98-1-2.49-1.85-5.31-3.71-5.43-3.6-.04.04.6.85,1.41,1.79.83.94,1.64,1.96,1.81,2.3.28.51.28.6-.02.7-.51.21-.92-.04-5.09-2.98-2.09-1.49-3.86-2.64-3.92-2.58s.08.38.32.7c.6.81,1.13,1.88,1.13,2.28,0,.68-.87.23-3.73-1.92-1.62-1.24-2.98-2.19-3.05-2.13-.06.04.15.4.47.79,2.26,2.79,2.75,3.79,1.88,3.79-.4,0-2.64-1.47-6.01-3.96-2.68-1.98-4.05-2.9-4.05-2.75,0,.08.51.68,1.13,1.34,1.58,1.66,3.37,4.09,3.24,4.33-.26.4-.96.15-2.07-.73-3.39-2.77-10.4-7.69-10.4-7.33,0,.15.38.73.85,1.3.92,1.09,1.04,1.56.53,1.75-.36.15-1.58-.51-5.48-2.92-1.49-.94-2.79-1.68-2.88-1.68s.66.83,1.68,1.85c1.92,1.96,3.15,3.54,3.15,4.05,0,.68-.73.43-2.9-1.07-2.47-1.68-8.67-5.6-9.85-6.2-.36-.19-.68-.26-.68-.15s.13.23.26.3c.6.21,6.73,5.26,7.76,6.35,1.36,1.47,1.66,1.98,1.3,2.28-.19.17-1.28-.38-4.09-2.09-2.11-1.28-3.88-2.28-3.92-2.24s.28.55.68,1.13c.98,1.32,1.28,2.07.94,2.35-.17.15-.87-.24-2.39-1.3-1.17-.83-3.75-2.56-5.73-3.84-2.73-1.75-3.71-2.28-4.07-2.19-.34.08-1.04-.19-2.26-.85-2.75-1.54-12.17-6.29-12.28-6.2-.04.04,1.38,1.09,3.15,2.28,3.45,2.37,6.5,5.05,6.71,5.9.24.89-.17.96-1.3.26-2.58-1.64-16.37-8.33-17.73-8.61l-.6-.13.53.38c3.39,2.47,5.58,4.22,6.33,5.03.87.94,1.15,1.68.73,1.94-.11.06-2.05-.77-4.3-1.88-5.24-2.51-5.2-2.49-3.96-1.26.98,1.02,1.32,1.98.7,1.98-.17,0-1.53-.51-3.05-1.15-1.49-.64-2.75-1.13-2.79-1.09s.04.26.21.51c.21.34.21.49,0,.7-.3.3-1.75-.15-7.74-2.49-2.17-.85-4.71-1.75-5.65-2-2.64-.68-5.48-1.32-5.56-1.24-.04.04.53.38,1.26.77,1.49.77,2.3,1.45,2.3,1.88,0,.38-.53.34-3.03-.15l-2.13-.45-.32.45c-.26.36-.45.43-1.09.32-1.36-.23-5.41-.98-7.07-1.3-1.79-.36-4.16-.23-4.71.26-.26.23-1.41.38-3.94.53-9.7.55-9.04.49-8.01.83.73.24.89.38.85.73-.11.75-2.43,1.34-6.52,1.73-1.36.13-1.58.21-1.75.64-.23.64-.45.7-3.24.87-1.98.11-2.49.21-2.88.55-.7.66-2.47.96-6.48,1.13-3.03.13-3.6.21-3.3.43.19.15.79.34,1.3.43,1.11.15,1.36.43.87.92-.3.3-.83.36-3.39.32-1.66-.02-3.83-.13-4.84-.23-1.66-.19-1.85-.19-2.17.17-.21.23-.75.47-1.17.53-1.07.17-1.28.23-2.41.64-.77.3-1.45.34-3.52.26-2.98-.13-5.18-.49-10.51-1.79-2.15-.53-3.96-.89-4.05-.83-.13.15.02.26,1.96,1.66,2,1.45,2.56,1.98,2.37,2.28-.51.83-5.05-.85-10.33-3.81-1.07-.62-1.98-1.07-2.05-1.02-.04.06.49.75,1.19,1.56.7.79,1.28,1.58,1.28,1.73,0,.92-3.05-.28-6.31-2.47-2.69-1.81-7.29-5.37-9.1-7.03-.92-.85-1.73-1.49-1.79-1.41-.28.28.64,3.05,1.9,5.77,2.45,5.26,2.39,5.07,2.47,7.8.11,2.81-.15,3.69-1.47,5.2-1.98,2.26-5.22,3.56-11.49,4.58-6.35,1.04-6.63,1.04-30.37-.47-2.35-.15-9.99-.28-18.11-.3-7.74-.02-14.75-.13-15.56-.26-.83-.11-1.53-.17-1.6-.15-.06.04-1.26.17-2.66.32-2.98.28-4.56.73-7.33,2.07l-2,.98-.4-.49c-.21-.26-.38-.6-.38-.77,0-.15-.23-.45-.51-.62-.28-.19-.68-.68-.87-1.09-.19-.4-.38-.73-.47-.73-.06,0-.81.43-1.66.96-1.75,1.11-3.58,1.81-4.64,1.81-.6,0-.89.19-1.62.98s-.94.94-1.19.73c-.53-.45-.81-1.66-.64-2.94.08-.66.15-1.9.13-2.71-.02-.83.06-1.77.19-2.11.13-.34.17-.66.13-.73-.06-.04-2.13.06-4.62.28-4.99.4-6.16.34-7.82-.45l-1.11-.55-1.7.66c-4.43,1.68-7.48,2.11-10.12,1.41l-1.28-.34-.43.6c-.83,1.17-1.64,1.98-1.94,1.98-.17,0-.55-.23-.83-.53-.73-.7-.75-2.39-.02-3.73.4-.79.49-1.17.4-2.09l-.13-1.13-1.13.15c-.66.06-1.58.02-2.19-.13-1.07-.26-1.09-.23-1.73.4l-.66.64-.81-.43-.81-.4-.23-1.98c-.32-2.58-.13-3.26,1.3-4.73,1.09-1.11,1.15-1.13,3.67-1.73,3.58-.85,5.26-.81,9.27.23,6.18,1.62,6.58,1.62,12.83.53,1.96-.36,4.94-.77,6.67-.94,1.7-.15,3.15-.34,3.2-.38.04-.04-.98-.53-2.3-1.09-2.6-1.09-5.69-2.92-7.71-4.56-3.64-2.96-8.37-9.55-10.8-15.07-2.22-4.99-5.45-15.43-6.54-21.01-.73-3.69-1.58-11.14-2.77-24.38-.24-2.56-.51-4.75-.62-4.86-.13-.13-.53.13-1.09.68-1.04,1.07-1.41.94-1.6-.6-.08-.55-.26-1.54-.38-2.19l-.23-1.19-.75.49c-.4.28-.87.51-1.02.51s-.73.38-1.26.85c-.98.85-1.66,1.07-1.94.62-.36-.6-.47-1.79-.21-2.51.15-.47.19-1.07.08-1.51-.08-.4-.11-.92-.04-1.11.08-.32-.08-.36-1.45-.32-1.43.04-1.6.08-2.13.68s-.6.62-.94.28c-.32-.3-.38-.79-.43-2.66-.02-2.17,0-2.37.62-3.54.79-1.51,2.09-2.73,3.47-3.24.57-.21,1.13-.47,1.24-.57.13-.11-.02-.66-.36-1.38-.81-1.79-2.05-4.88-2.51-6.35-.24-.7-.66-2.05-.98-2.98-.66-2.02-1.3-3.37-1.54-3.22-.11.06-.53.79-.96,1.64-1.32,2.58-3.92,6.61-5.56,8.61-2.32,2.88-2.28,2.71-2.47,9.16-.13,4.54-.23,5.86-.6,7.35-.26,1-.62,2.51-.81,3.37l-.36,1.56.79,1.54c1.41,2.79,2.92,6.24,2.92,6.63,0,.21.17.85.36,1.41.3.83.32,1.13.11,1.58-.32.73-.81.68-1.83-.08-.47-.36-.96-.64-1.11-.64s-.7-.34-1.24-.75c-.55-.4-1.07-.75-1.17-.75-.08,0-.3.87-.45,1.94-.23,1.62-.23,2.22.02,3.67.17,1,.23,2.11.15,2.6-.08.53-.02,1.26.17,1.9.4,1.43.38,1.6-.21,1.75-1,.26-2.54-1.09-4.16-3.64-.43-.66-.68-.92-.77-.73-.04.17-.34,1.02-.62,1.92-.49,1.49-.51,1.68-.21,2.49.45,1.36.64,3.24.3,3.24-.62,0-2.15-1.13-2.77-2.02-.36-.53-.75-.92-.83-.87-.11.06-.08.6,0,1.19.19,1.17.11,1.62-.32,1.77-.79.3-2.51-1.56-2.79-2.96-.06-.45-.32-1.04-.55-1.32-.53-.68-.53-2.02.02-3.73,1.88-5.88,1.96-6.29,1.83-7.88-.47-5.6-.34-10.74.4-17.41.17-1.47.49-4.54.75-6.82.89-8.33,2.3-17.65,3.41-22.44,1.73-7.44,1.75-7.56,1.85-11.34.06-2.39-.02-5.03-.23-7.78-1.75-20.67-1.79-38.38-.13-46.71.98-4.9,2.39-8.65,4.58-12.32,1.09-1.81,1.41-2.51,1.32-2.94-.06-.32-.26-1.38-.45-2.39-.43-2.24-.45-5.63-.04-7.71.17-.85.75-2.6,1.3-3.83l1-2.3-1.09-1.21c-.62-.68-1.38-1.81-1.73-2.49-.57-1.15-.64-1.45-.64-3.39,0-3.77.89-6.03,2.9-7.31,1.34-.85,1.26-.26.94-6.26-.15-2.71-.15-5.14.02-7.78.26-4.18.32-3.64-1.07-8.93-.38-1.56-.75-3.6-.87-5.22-.21-2.49-.36-3.67-.87-6.95-.57-3.64-.64-4.88-.3-5.05.21-.13.32-.53.32-1.3,0-.62.11-1.45.23-1.85.15-.43.24-1.85.21-3.3-.06-2.79.3-6.07.73-6.93.15-.3.45-1.45.64-2.56.49-2.73.81-3.45,1.43-3.37.45.06.51-.06.77-1.3.13-.75.45-1.6.66-1.92.23-.32.57-1.36.75-2.34.89-4.67,1.7-6.78,2.47-6.31.08.06.23.6.32,1.19.08.6.23,1,.32.89.08-.08.43-1.04.75-2.09,1.34-4.52,2.66-7.61,3.35-7.74.3-.06.32.28.26,2.88l-.08,2.94.53-2c1.47-5.35,4.11-11.1,5.11-11.1.53,0,.55.4.21,2.68-.19,1.24-.32,2.28-.28,2.34.11.08,2.09-4.45,2.09-4.77,0-.11.17-.34.38-.53.29-.27.43-.29.63-.1h0v-.05Z"/>
  </g>
</svg>