<?xml version="1.0" encoding="UTF-8"?>
<svg id="Layer_1" xmlns="http://www.w3.org/2000/svg" version="1.1" viewBox="0 0 848.65 860.99">
  <!-- Generator: Adobe Illustrator 29.6.0, SVG Export Plug-In . SVG Version: 2.1.1 Build 207)  -->
  <defs>
    <style>
      .st0 {
        fill: #0f0b0d;
        fill-rule: evenodd;
      }

      .st1 {
        fill: #fff;
      }

      .st2 {
        display: none;
      }
    </style>
  </defs>
  <g id="BACKGROUND" class="st2">
    <rect class="st1" width="500" height="500"/>
  </g>
  <g id="OBJECTS">
    <path class="st0" d="M193.4,219.84c0,.26,1.61,1.05,4.12,2.04,2.24.86,4.09,1.61,4.02,1.66-.03.03-1.92-.43-4.14-1.05-2.24-.59-5.18-1.35-6.56-1.61-2.4-.5-3.8-.43-3.16.14.16.17,3.23,1.45,6.78,2.86,3.59,1.42,6.45,2.61,6.39,2.68-.07.07-2.47-.47-5.33-1.19-11.06-2.76-21.95-4.82-26.63-5.04-3.43-.17-3.07.5.69,1.31,4.28.98,11.99,3.11,11.84,3.26-.07.1-2.5-.22-5.37-.69-11.01-1.78-21.68-2.86-23.63-2.38-1.81.47-.93,1.05,2.43,1.67,1.81.33,3.23.66,3.16.72-.07.1-2.17-.1-4.71-.43-4.85-.59-11.3-.76-12.55-.33-1.42.47-.54,1.02,2.35,1.42,2.86.43,16.05,3.23,17.14,3.66,1.12.47-5.61.16-12.62-.55-7.15-.72-14.07-.83-13.95-.19.03.16,1.59.72,3.45,1.23l3.4.86-2.38.03c-1.59.03-2.4.17-2.4.4,0,.29-.79.33-2.68.19-5.57-.36-14.39.79-14.03,1.85.07.26,1.35.47,3.56.59,1.88.14,5.14.4,7.21.66l3.8.43-1.95.26c-1.09.14-2.04.4-2.14.54-.1.17-1.09.17-2.17.03-2.83-.36-10.11-.33-10.72.03-.33.19-.36.43-.16.62.19.17,3.45,1.02,7.25,1.92l6.92,1.59-8.91.19c-10.91.22-14,.55-14,1.42,0,.62.76.76,7.71,1.35,3.26.29,5.99.59,6.09.66.07.1-1.35.17-3.16.17-3.81,0-5.37.22-5.37.83,0,.29.83.54,2.4.72l2.38.29-2.64.22c-1.45.14-5.07.47-8.08.72-9.06.79-15.52,2.24-15.76,3.56-.1.54.19.55,4.12.4l4.21-.17-4.54.83c-7.97,1.42-14.72,3.56-14.72,4.64,0,.55.17.55,3.45-.03,3.3-.55,12.17-1.38,17.64-1.61l4.12-.16-6.16.95c-11.6,1.78-18.26,3.26-21.78,4.85-1.31.59-1.88,1.02-1.81,1.38.07.29.4.5.76.47,7.58-.86,9.82-1.09,9.92-.98.1.07-.86.4-2.07.72-8.47,2.24-17.1,5.73-20.3,8.2-.86.66-3,1.85-4.78,2.61-3.62,1.61-6.33,3.33-6.33,4.02,0,.26.17.5.36.5.16,0,3.88-.98,8.23-2.17,4.35-1.19,7.97-2.11,8.04-2.04.1.07-1.45.79-3.4,1.55-4.61,1.88-14.39,6.59-16.41,7.94-.88.59-2.21,1.67-2.97,2.43s-2.61,2.07-4.12,2.93c-3.49,2-5.07,3.3-4.82,3.99.19.47.5.43,2.54-.33,1.67-.59,2.47-.72,2.76-.5.29.22,1.28.19,3.3-.17,1.61-.26,2.97-.43,3.04-.36s-.72.36-1.78.69c-2.93.93-5.01,1.88-5.01,2.35,0,.55,1.23.86,2.73.59.79-.1,1.23-.07,1.23.16,0,.19.36.55.83.83.79.4.59.47-2.61,1.02-2.83.47-4.52.54-9.16.36-6.23-.19-8.99.03-8.99.83,0,.33.66.62,1.98.88,3.37.72,3.45.76,3.45,1.12,0,.22-2.21.29-6.49.26-6.39-.03-7.65.17-6.09.98.79.43,7.8,2.11,11.93,2.86,2.8.5,3.04.59,2.17.88-1.09.36-6.13-.22-8.37-.98-1.88-.62-2.35-.26-1.19.93,1.23,1.28,4.02,2.31,10.34,3.88,8.84,2.14,8.59,2,3.37,1.85-2.57-.1-5.04-.07-5.51.03-1.09.26-1.05.98.1,1.42.66.26.19.29-1.92.14-3.92-.33-4.92-.33-5.01.07-.14.55,1.61,1.23,6.63,2.5,2.57.69,4.88,1.45,5.11,1.71.33.43,2.93,1.52,5.97,2.5,1.59.5.17.4-1.55-.14-1.52-.43-2.21-.26-1.74.5.4.62,4.06,2.31,6.82,3.09,2.5.72,11.93,2.9,16.52,3.81,1.05.19,1.88.43,1.81.5-.29.29-14.93-1.55-16.02-1.98-1.26-.55-1.59-.47-1.26.33.43,1.19,3.4,2.07,14.86,4.45,8.27,1.74,8.53,2,.88.98-5.21-.69-5.99-.88-6.39-1.45-.33-.54-1.05.29-.83.93.33.83,2,1.48,6.49,2.64,3.4.83,4.12,1.12,3.69,1.42-.5.29-.43.43.59,1.05.62.4,1.85.95,2.71,1.26.88.33,1.61.83,1.67,1.16.36,1.31,6.42,3.26,18.73,5.97,3.69.83,7.02,1.55,7.39,1.66.36.1,0,.17-.83.19-2.24.03-10.84-1.16-12.53-1.74-1.85-.62-1.98-.66-1.98-.03,0,.69,2.76,2.17,5.7,3.04,1.45.43,4.88,1.23,7.61,1.78,2.73.55,5.8,1.35,6.78,1.78,2.64,1.09,5.01,1.74,11.86,3.16l6.09,1.26h-6.49c-5.4.03-6.52.1-6.52.5,0,.79,4.71,1.71,15.22,3,3.76.47,7.35,1.05,8.01,1.35,2.14.88,9.1,2.4,17.1,3.76,4.35.72,8.27,1.31,8.7,1.31.47,0,.76.07.66.17-.26.26-19.38-.98-34.43-2.24-.4-.03-.76.07-.79.26-.1.66,4.45,1.81,11.77,3,4.68.72,8.23,1.48,9.35,1.95,5.18,2.14,17.66,3.8,38.23,5.07l3.8.22-6.42.22c-16.88.66-30.05.9-30.69.55-.86-.5-1.38-.14-.95.66.69,1.28,4.38,1.81,15.83,2.31,4.25.19,11.24.72,15.48,1.16,4.25.47,8.27.83,8.91.83.98.03,1.09.07.54.4-.66.36-14.57.14-19.07-.36-1.98-.19-2.97,0-2.43.5.36.36,6.63,1.45,11.11,1.92,2.64.29,8.27.69,12.53.88,6.56.29,8.15.47,10.37,1.16,3.09.93,7.84,1.88,12.69,2.5l3.45.43-10.37.19c-5.7.14-10.48.22-10.61.26-.4.07-.29,1.02.07,1.02,2,0,9.6,1.19,11.53,1.78,1.35.43,4.02,1.05,5.94,1.35,1.92.33,3.92.76,4.45.98,5.26,2.28,17.14,3.45,42.91,4.21,3.23.1,4.12.29,3.59.79-.14.16-6.09.22-13.25.16-11.11-.07-12.98-.03-12.98.4s1.42.79,7.58,1.78l1.48.26-2.8.55c-5.21,1.09-6.37,1.52-6.16,2.24.17.55,0,.62-1.81.62-2.5,0-2.47.72.03,1.02,1.02.14,1.88.47,2.11.79.4.5.88.5,7.15.03,6.7-.5,31.7-.9,29.6-.47-.59.1-7.94.79-16.31,1.48-8.41.69-15.26,1.35-15.26,1.45,0,.54,1.61.72,8.73.98,4.19.14,7.75.26,7.9.29.19.03-.55.36-1.61.76-2.28.86-2.8,1.55-1.12,1.55.59,0,3.52-.36,6.52-.83,8.58-1.26,17.03-2.14,20.26-2.11l2.97.03-3.8.47c-6.59.76-13.95,1.81-15.4,2.17-.83.19-1.42.54-1.42.79,0,.55,7.61.62,17.79.14,3.52-.16,6.45-.26,6.49-.19.07.03-1.85.43-4.21.83-5.26.93-6.23,1.23-6.23,2.04,0,.55.26.62,2.73.59,1.48,0,6.92-.26,12.1-.59s9.42-.55,9.46-.54c.07.03-2.71.76-6.09,1.59-6.39,1.61-11.6,3.73-11.6,4.68,0,.62,1.38.62,8.91,0,6.89-.55,7.47-.55,4.45.03-3.56.69-3.8.76-3.8,1.31,0,.47.66.54,5.94.4,4.49-.07,5.61-.03,4.68.22-1.66.47-1.61,1.28.07,1.42.69.07,6.78-.14,13.51-.4,6.73-.29,14.17-.59,16.52-.69l4.28-.17-6.52,1.16c-6.59,1.16-11.41,2.24-12.5,2.83-.86.47-.76,1.28.16,1.28.4,0,4.88-.29,9.96-.66,12.65-.88,12.89-.86,5.61.83-6.52,1.48-10.25,2.54-11.77,3.33-.93.5-1.23,1.26-.59,1.61.33.19,7.15-.62,23.56-2.83,13.25-1.78,15.19-1.92,8.58-.5-10.34,2.17-15.76,3.85-16.19,4.97-.36.88.33,1.26,1.59.86,1.02-.36,17.86-2.38,19.45-2.31.43,0-1.74.54-4.78,1.16-6.82,1.42-8.59,2-8.73,3.04-.14.93-.98.93,12.94-.26,6.3-.55,11.84-.98,12.32-.98.47.03-.76.47-2.76.95-6.2,1.61-8.2,2.68-7.18,3.69.29.29.86.29,2.31,0,2.76-.55,28.17-3.07,29.86-2.93,1.05.07.59.19-1.92.54-17.69,2.31-23.23,3.56-23.23,5.21,0,.47.33.5,2.57.33,1.38-.1,4.38-.26,6.66-.36l4.12-.19-1.38.66c-.79.36-1.42.88-1.42,1.19,0,.5,1.42.54,10.04.03l2.31-.14-2.14.55c-3.07.86-4.71,1.61-4.52,2.07.07.22.43.4.76.36,2.31-.29,12.18-.76,15.45-.72l3.95.03-1.92.43c-2.38.54-4.52,1.45-4.52,1.98,0,.33,1.19.4,5.04.29,5.54-.17,5.64.07.55,1.16-3.12.69-5.26,1.66-5.26,2.38,0,.26.47.29,1.42.17,2.86-.4,11.6-.86,20.19-1.02l8.87-.17-1.81.66c-1.12.43-3.3.83-5.73,1.02-3.92.33-6.35.98-5.97,1.61.1.17.83.33,1.55.33,1.71,0,1.52.16-1.55,1.52-2.83,1.26-4.61,2.4-4.21,2.8.14.14,3.52-.55,7.51-1.55l7.25-1.81,6.27.69c3.45.4,6.42.76,6.63.83.26.07.29.55.1,1.55-.14.79-.36,2.86-.5,4.64l-.22,3.23,1.05,1.09c.59.62.95,1.19.79,1.28-.69.43-11.77,1.59-17.72,1.85-3.62.14-14.38.19-23.89.14-19.47-.19-21.23-.07-25.22,1.92-4.64,2.28-9.2,7.84-13.34,16.24-2.31,4.78-3.43,7.97-4.52,13.05-.43,2.07-1.28,5.37-1.88,7.28-.62,1.92-1.66,6.3-2.35,9.72-1.59,8.3-5.25,26.37-6.3,31.1-1.78,8.15,0,12.82,6.23,16.28,1.67.95,2.24,1.45,2.4,2.11.47,2.35,2.24,7.39,3.23,9.13,1.59,2.86,3.16,3.92,6.33,4.06,1.35.1,2.97.03,3.59-.07,1.45-.29,2.97-1.59,3.81-3.23l.69-1.31,1.12,1.88c1.78,2.93,2.76,4.09,4.25,4.94,2.68,1.59,5.73.69,7.58-2.21.55-.86,1.05-1.55,1.16-1.55.1-.03.47.5.83,1.16,1.09,2.04,3.85,4.64,5.4,5.11,1.28.4,1.55.36,2.64-.22,3.56-1.92,4.68-10.04,2.04-15.22-2.21-4.35-7.8-7.78-13.81-8.47-1.74-.19-2.04-.33-1.88-.79.62-1.66,2.47-8.15,2.93-10.32.76-3.69.66-8.11-.29-13.31-1.31-7.21-1.35-7.84-.5-9.1.93-1.38,3.4-3.37,5.14-4.25l1.38-.66,5.37,2.64c15.62,7.54,30.22,11.82,45.7,13.34,10.11.98,24.49,1.26,29.36.5,3.16-.47,11.93-2.8,19.21-5.11l5.8-1.85,3.76,2.47c2.04,1.35,4.52,2.86,5.47,3.33l1.74.88-1.81,1.95c-2.36,2.61-3.16,4.68-3.16,8.53,0,1.59.19,3.59.47,4.49,1.26,4.12,5.97,9.03,14.38,14.93,3.16,2.24,6.96,4.92,8.41,5.94,1.42,1.02,4.85,3,7.58,4.38,5.44,2.73,5.37,2.68,7.18,7.32.33.83,1.02,1.92,1.48,2.4,1.26,1.26,5.04,2.93,8.15,3.59,3.56.79,11.13.79,15.29.03l3.07-.54,1.31,1.48c1.59,1.81,3.49,2.83,5.25,2.86.72,0,1.38.14,1.48.29s.43.29.76.29c.72,0,1.02-.86,1.02-2.9v-1.45l1.74,1.59c2.24,2.04,4.12,2.86,6.2,2.71,1.38-.1,1.61,0,1.92.62.47,1.02,1.55.95,2.24-.14,1.12-1.71.72-4.71-.95-7.08-.72-1.02-.03-.98,1.67.07,2.43,1.52,3.69,1.78,5.21,1.16,1.19-.5,1.28-.5,1.71.14.22.4.66.69.95.69.43,0,.47-.43.26-2.86-.17-1.71-.5-3.33-.86-4.02-1.05-2.07-6.16-6.73-8.66-7.9-4.75-2.28-13.77-3.26-19.83-2.21l-3.3.59-2.14-.83c-6.92-2.64-7.68-3.12-15.1-9.63l-3.43-2.97,2.93-.19c1.59-.14,4.28-.22,5.97-.26,5.87-.07,12.62-1.52,23.85-5.14,8.34-2.68,12.94-4.45,16.41-6.37,3.4-1.88,10.15-6.35,12.91-8.59,2.5-2,7.51-7.11,7.51-7.68,0-.14.17-.26.33-.26.19,0,.33.36.33.79,0,1.88,2.14,8.96,5.44,17.98,3.99,10.91,5.51,14.57,8.91,21.25,3.45,6.92,5.21,9.63,9.68,15.29,7.8,9.79,14.83,15.91,20.19,17.54,3.09.95,6.89.72,12.22-.66,2.14-.55,5.61-1.31,7.71-1.67,2.11-.4,5.14-1.19,6.75-1.78l2.9-1.09,2.9,2.97c3.26,3.33,5.25,4.52,7.75,4.52.86,0,2.11-.22,2.73-.5,1.05-.43,1.26-.43,1.88,0,.4.26.95.5,1.28.5,1.19,0,1.67-2.54.76-3.85-.5-.69-.47-.69,1.55.14,1.19.47,3.07.88,4.38.98,1.85.14,2.47.33,3.16.98.76.69.98.76,1.59.47,1.67-.93,1.74-2.86.26-6.49-.62-1.45-1.74-3.52-2.54-4.57-3.3-4.45-10.61-10.61-14.57-12.25-2.14-.93-5.99-.98-9.56-.22-5.64,1.23-7.61,1.42-8.66.93-4.45-2.07-10.11-21.56-10.61-36.38-.14-4.09-.03-7.35.36-11.2.86-8.96,1.28-12.22,1.52-11.96.14.14,1.38,3.45,2.8,7.35,2.97,8.23,4.68,12.22,7.9,18.62,3.45,6.92,5.21,9.63,9.68,15.26,7.87,9.89,14.83,15.95,20.19,17.57,3.16.95,6.82.72,12.94-.83,2.54-.62,5.47-1.28,6.49-1.45l1.92-.29.55,1.19c.47.88.95,1.31,1.95,1.66,1.95.69,3.49.03,5.25-2.17.72-.93,1.48-1.71,1.66-1.71.19,0,1.28.95,2.47,2.17,2.57,2.57,4.75,3.73,7.08,3.69.93,0,1.95-.14,2.31-.26.47-.19.93-.07,1.48.36.79.62.83.62,1.38-.07.43-.54.59-1.31.59-2.71,0-1.74.07-1.95.59-1.74,4.14,1.71,7.71,2.28,8.96,1.48.36-.22.69-.07,1.35.72.98,1.19,1.78,1.09,2.28-.26.36-.95-.1-3.23-.83-4.09-.19-.26-.55-1.02-.79-1.66-.19-.62-.76-1.71-1.19-2.38-.47-.69-.83-1.31-.83-1.42,0-.4,3.4-.14,4.61.36,1.74.72,2.43.22,2.21-1.55-.19-1.59-.76-2.28-4.14-5.18-1.55-1.28-4.25-3.62-5.97-5.18-3.76-3.4-5.54-4.28-9.35-4.78-3.43-.43-4.35-.22-8.18,1.81-2.8,1.48-4.12,1.88-8.66,2.64-2.24.36-2.8.36-3.62-.03-2.64-1.23-5.97-8.96-8.2-19.17-2.07-9.2-2.28-11.06-2.31-19.35-.03-7.51.43-13.44,1.66-21.23.59-3.92,2.28-7.28,5.4-10.77,1.35-1.48,3.45-4.54,5.3-7.65,1.67-2.83,5.44-8.91,8.34-13.41,5.7-8.91,6.75-10.74,8.44-14.89l1.09-2.71,3.49-1.16c6.75-2.24,12.82-3.45,19.61-3.99,4.68-.33,8.91-1.98,10.34-4.06.59-.79.93-.93,2.5-.98,2.76-.1,8.01-1.31,10.29-2.4,3.85-1.81,8.59-7.08,9.89-10.91.47-1.38.69-1.66,2.21-2.35,3.49-1.66,7.97-5.9,9.53-9.03.88-1.85.98-2.31.83-4.12-.22-3.07-1.26-5.33-4.06-8.99-1.92-2.5-3.3-4.88-5.73-9.89-5.21-10.74-12.72-24.13-16.74-29.82-4.14-5.94-11.7-14.2-16.78-18.42-8.53-7.15-16.05-11.34-22.73-12.72-1.42-.29-2.57-.55-2.57-.59-.14-.22-1.31-7.68-2.14-13.58-.55-3.81-1.38-8.47-1.85-10.32-1.71-6.96-4.75-13.05-9.99-20.11-1.74-2.38-3.99-5.64-5.01-7.21-1.02-1.59-3.11-4.45-4.57-6.37-1.48-1.92-3.85-5.11-5.25-7.08-2.38-3.43-6.02-8.11-8.91-11.37-2.61-2.97-2.57.07.1,5.76.83,1.71,1.38,3.12,1.31,3.12-.1,0-.93-.59-1.88-1.28-2.14-1.61-7.02-4.64-7.47-4.64-.59,0-.33.86.5,1.66.47.43.83,1.02.83,1.35,0,.43,3.52,5.47,5.7,8.18.22.26-.26,0-1.05-.55-1.59-1.16-2.35-1.31-2.35-.55,0,.26,1.12,2.28,2.47,4.45l2.43,3.95-1.48-.86c-1.02-.59-1.61-.76-1.85-.54-.36.36.14,1.48,2.24,4.75l1.42,2.21-1.55-.98c-2.86-1.81-2.76-1.19.55,3.99l.54.83-.95-.76c-.54-.4-1.12-.72-1.35-.72s-1.31-1.45-2.4-3.23c-2.24-3.62-5.61-7.75-6.42-7.9-.36-.07-.55.1-.55.54,0,.54,1.05,3.92,1.81,5.76.17.4-.59.07-2.31-1.05-4.06-2.68-4.57-2.14-1.48,1.38,1.09,1.26,1.98,2.31,1.98,2.4s-.79-.43-1.71-1.16c-.95-.69-2.47-1.66-3.4-2.07-3.43-1.71-4.68-1.38-2.73.66,1.81,1.95,2.04,2.31,1.38,2.24-1.09-.07-.76.72,1.71,4.25,2.28,3.26,2.36,3.49,1.16,2.38-1.35-1.23-1.85-1.45-2.14-.95-.14.26,1.38,3.49,3.81,7.97l1.35,2.47-2-1.92c-1.09-1.02-2.14-1.88-2.35-1.88-.69,0-.36,1.35.95,3.95.72,1.45,1.31,2.71,1.31,2.8s-.29,0-.66-.22c-.33-.22-.72-.29-.86-.16-.19.16.59,2.61,2.04,6.33.14.36-.43-.1-1.26-.98-2.31-2.5-2.57-1.74-1.09,3.12.17.62-.03.47-.83-.59-.55-.76-1.26-1.38-1.52-1.38-.55,0-.43,1.02.55,4.57l.55,2.14-.83-1.05c-.43-.59-.95-1.05-1.12-1.05-.54,0-.33,2.04.54,5.11.43,1.61.72,3,.66,3.07-.1.1-.22-.1-.36-.4-.29-.79-1.12-.66-1.12.19,0,.43.36,2.47.79,4.54.43,2.07.62,3.52.4,3.16-1.61-2.64-2.83-3.81-2.83-2.76,0,.22.43,2.28.95,4.49l.95,4.09-1.09-1.05c-1.52-1.45-1.88-1.09-1.16,1.23.33,1.05.83,2.68,1.09,3.59l.5,1.71-2.35,1.66c-3.88,2.71-8.18,6.45-16.84,14.7-10.74,10.25-14.5,13.15-22.61,17.43-6.78,3.62-13.08,5.51-20.37,6.16-4.45.4-5.87.29-20.52-1.31-11.74-1.31-23.04-1.78-38.37-1.55-17.26.26-26.79,1.16-39.54,3.69-12.43,2.5-23.2,6.39-36.09,13.08-6.35,3.3-11.34,6.09-15.26,8.59-1.42.88-2.61,1.59-2.64,1.52s-.62-1.23-1.28-2.54c-2.04-3.95-16.97-26.6-17.57-26.6-.93,0-.03,3.62,2.28,9.23.76,1.92.33,1.19-4.45-7.25-5.54-9.75-10.58-17.97-11.06-17.97-.72,0-.69.5.29,2.97,1.88,4.64,2.24,5.76,1.85,5.25-2.31-2.8-6.16-7.97-7.84-10.51-2.93-4.38-5.57-7.9-5.94-7.9-.17,0-.33.29-.4.69-.07.54-.69-.1-2.9-2.9-8.58-10.94-19.11-21.95-19.11-19.9,0,.33,2.47,3.99,4.45,6.63,2.93,3.85,2.43,3.62-2.64-1.28-3.56-3.43-5.33-5.4-5.47-6.02-.33-1.52-2.21-4.35-5.99-9.1-8.37-10.48-20.19-22.73-21.06-21.88-.22.22.17,1.05,1.38,2.76l1.74,2.4-1.78-1.66c-.98-.9-4.45-4.19-7.71-7.28-12.1-11.53-17.97-16.31-17.97-14.6,0,.19,1.71,2.21,3.81,4.45s3.76,4.09,3.66,4.09-2.86-2.14-6.13-4.78c-9.89-7.87-16.12-12.03-18.09-12.03-.29,0-2-1.31-3.76-2.93-3.45-3.23-6.42-5.64-6.85-5.64-.17,0-.33.22-.4.54-.07.43-.36.33-1.52-.5-2.61-1.92-7.21-4.64-7.78-4.64-.33,0-3.43-1.88-6.89-4.21-5.97-3.95-10.58-6.66-11.41-6.66-.55,0-.43.69.22,1.23.69.59.76.62-5.26-2.97-6.3-3.76-12.43-7.06-15.45-8.3-2.54-1.02-3.26-1.16-3.26-.54,0,.14,2.57,1.98,5.7,4.09,9.03,6.13,8.96,6.16-1.26.55-5.76-3.16-19.24-9.89-19.8-9.89-1.42,0,.1,1.19,8.2,6.39,2.47,1.61,4.52,3.04,4.52,3.19,0,.14-2.57-.88-5.66-2.24-3.12-1.35-8.37-3.37-11.63-4.45-5.99-1.98-16.28-6.16-20.99-8.53-2.8-1.42-3.23-1.52-3.23-.83,0,.88,5.87,4.54,14.93,9.32,2.93,1.55,5.04,2.71,4.68,2.57-.36-.14-3.56-1.35-7.08-2.71-3.52-1.31-8.92-3.26-12.03-4.25-5.4-1.74-14.17-4.09-15.4-4.09-.9,0-.72.55.33,1.16,1.09.62.69.55-3.73-.79-7.68-2.35-14.67-3.66-14.96-2.83-.07.16,1.61.88,3.73,1.61,2.11.69,3.8,1.35,3.73,1.42-.1.07-2.43-.55-5.21-1.35-4.64-1.35-16.84-4.49-17.5-4.49-.14,0-.28.19-.28.45h0l.14-.02ZM159.67,224.51c-.1.1-.4.14-.62.03-.26-.1-.17-.19.19-.19.36-.03.55.07.43.17v-.02ZM182.75,225.19c-.1.1-.4.14-.62.03-.26-.1-.17-.19.19-.19.36-.03.55.07.43.17v-.02ZM357.96,278.79c.93.9,1.26,1.28.69.93-.54-.36-2.11-1.74-3.45-3.04-2-1.88-2.11-2.07-.69-.93.98.79,2.57,2.17,3.45,3.04ZM50.94,288.79c-.1.1-.4.14-.62.03-.26-.1-.16-.19.19-.19.36-.03.55.07.43.17v-.02ZM69.87,332.14c1.95.43,3.07,1.05,1.26.72-1.59-.33-3.88-1.05-3.4-1.09.19-.03,1.16.14,2.14.36ZM446.28,360.29c.1.26.07.4-.14.29s-.33-.33-.33-.54c0-.47.22-.36.47.22v.02ZM219.25,381.24c.36.36-10.44,0-13.19-.43-.93-.14,1.59-.16,5.61-.07s7.39.29,7.58.5Z"/>
  </g>
</svg>