<?xml version="1.0" encoding="UTF-8"?>
<svg id="Layer_1" xmlns="http://www.w3.org/2000/svg" version="1.1" viewBox="0 0 786.64 649.74">
  <!-- Generator: Adobe Illustrator 29.6.0, SVG Export Plug-In . SVG Version: 2.1.1 Build 207)  -->
  <defs>
    <style>
      .st0 {
        fill: #0f0b0d;
        fill-rule: evenodd;
      }

      .st1 {
        fill: #fff;
      }

      .st2 {
        display: none;
      }
    </style>
  </defs>
  <g id="BACKGROUND" class="st2">
    <rect class="st1" y="75.12" width="500" height="500"/>
  </g>
  <g id="OBJECTS">
    <path class="st0" d="M89.63,63.56c-2.1,2.3-9.26,16.1-12.27,23.57-1.32,3.3-2.71,6.51-3.08,7.13-1.13,1.91-3.95,8.64-5.74,13.76-4.64,13.21-5.67,20.6-4.57,33.16.58,6.91.81,6.06-2.71,9.84-1.56,1.65-4.09,3.76-7.22,6-2.66,1.87-5.34,3.92-5.93,4.5-1.56,1.53-8.68,11.05-10.69,14.24-2.82,4.5-4.28,8.26-7.46,19.21-1.17,3.95-1.49,4.83-2.37,6.22-1.43,2.23-1.75,3.69-1.79,7.54-.03,3.37.03,3.66.94,5.27,1.32,2.42,3.59,4.36,6.15,5.31,1.87.65,2.13.88,2.59,2.01.77,1.94,3.25,5.57,5.08,7.51,2.59,2.71,7.47,5.6,11.78,6.94,3.56,1.07,11.89,1.58,22.69,1.39,5.74-.14,10.03-.07,11.66.15,1.39.19,3.47.45,4.64.58,1.17.1,2.13.22,2.16.26s-.1.7-.26,1.49c-.94,4.11-1.25,8.31-1.25,16.39,0,16.94,1.03,23.74,5.34,34.62,4.17,10.58,9.26,18.55,15.38,24.26,2.78,2.56,4.43,3.01,9.16,2.49l3.52-.41,2.46,2.41c1.36,1.32,4.47,4.11,6.87,6.25s6.77,6.18,9.72,9.07c2.94,2.85,7.16,6.77,9.4,8.71,7.75,6.7,9.62,8.93,18,21.44,4.72,7.03,6.92,10.69,6.55,10.94-.03.03-.74.26-1.55.48-2.3.69-4.72,2.46-8.78,6.51-3.4,3.37-3.92,4.02-5.24,6.8-1.68,3.52-3.33,8.35-3.78,11.17-1.39,8.59,1.25,20.75,7.13,32.71,4.24,8.59,8.93,16.39,12.88,21.37,3.11,3.92,11.6,13.28,17.04,18.85,1.79,1.82,3.14,3.4,3.01,3.52-.1.1-2.56-.14-5.45-.52-6.25-.84-6.99-.72-9.47,1.56-1.75,1.65-5.24,6.41-7.32,9.95-.94,1.58-1.32,2.63-1.32,3.5,0,1.79.52,2.59,1.46,2.37.48-.14,1.25.07,2.1.48l1.29.69-1.32,1.49c-2.75,3.11-4.02,7.32-2.59,8.62.45.41.77.48,1.2.26.4-.22.98-.14,2.01.33,1.17.52,1.94.62,3.69.52l2.2-.15v1.39c0,.74.1,1.58.19,1.87.33.81,1.32.62,2.04-.41.52-.7,1-.94,2.08-1.07,2.01-.22,4.57-1.49,6.99-3.47,1.13-.91,2.2-1.65,2.37-1.65.19,0,.94.65,1.68,1.46,2.1,2.3,3.69,2.75,9.62,2.75,4.24,0,5.38-.14,8.81-.94,2.16-.52,5.89-1.25,8.3-1.65,3.88-.62,4.72-.65,8.74-.33,2.42.19,5.63.48,7.13.69,1.49.19,3.76.26,5.02.14,3.33-.33,12.4-1.72,13.83-2.13,2.78-.84,7.03-5.24,7.9-8.19.62-2.08.62-3.88-.03-7.61-.48-2.85-1.17-5.05-4.35-14.12-1.43-4.11-2.92-10.02-2.92-11.7v-1l3.21-.19c3.73-.26,8.71-1.46,11.49-2.75,1.1-.52,3.26-1.91,4.86-3.11,1.58-1.2,3.04-2.1,3.25-2.04.15.07.41.45.55.91,2.75,9.33,7.8,19.34,11.75,23.35,2.1,2.16,2.46,1.56,1.17-2.04-.52-1.49-.91-2.71-.84-2.78s1.24,1.46,2.63,3.37c5.53,7.61,12.56,15.65,13.66,15.65.65,0,.48-.77-.36-2.04-1.56-2.27-1.56-2.63,0-.88,6.55,7.39,15,15.87,15.87,15.87.81,0,.48-.65-1.65-3.59-1.17-1.56-2.1-2.94-2.1-3.04s1.65,1.29,3.66,3.14c8.78,7.97,17.68,14.67,18.47,13.9.29-.29-.62-1.32-3.66-4.28-2.23-2.13-3.85-3.8-3.59-3.66s2.34,1.58,4.6,3.26c8.9,6.48,18.76,12.54,19.24,11.75.33-.52.03-.81-3.99-4.11-4.9-4.02-5.15-4.31-2.82-3.01,7.75,4.31,10.75,5.89,16.06,8.56,6.29,3.14,11.85,5.48,12.3,5.19.15-.1.29-.29.29-.41s-3.37-2.34-7.46-4.9c-4.11-2.56-7.42-4.69-7.35-4.72.03-.07,3.14,1.24,6.87,2.82,16.46,7.09,29.75,11.66,30.77,10.58.22-.22.22-.4,0-.48-1.24-.52-6.67-3.3-6.15-3.14,2.92.84,8.09,2.04,9.55,2.2.98.1,2.71.45,3.88.81,6.08,1.82,7.87,2.34,10.62,2.97,2.23.52,3.11.62,3.37.36.4-.4-1.84-1.53-7.2-3.62-2.53-.98-4.35-1.98-2.75-1.49,1.65.48,7.28,1.53,11.6,2.1,6.51.94,11.78.88,11.46-.07-.1-.36-.88-.58-7.47-2.2-5.89-1.43-6.18-1.61-1.98-1.43,8.09.4,17.97.55,20.24.36,4.35-.41,4.36-1.25.1-1.87-2.89-.41-3.26-.91-.7-.91,2.16,0,13.64-1.2,16.97-1.79,3.26-.58,6.05-1.49,6.25-2.04.07-.22-.22-.4-.81-.41-.48,0,1.29-.52,3.95-1.1,6.18-1.39,9.29-2.37,9.14-2.85-.07-.22-.77-.4-1.79-.4-2.08,0-2.42-.33-.65-.62,4.11-.65,11.49-2.78,12.88-3.73.45-.33,2.78-1.03,5.19-1.61,7.25-1.75,12.56-3.66,12.4-4.5-.03-.15,1.2-.7,2.75-1.2,6.25-1.91,13.98-4.43,16.75-5.48,3.04-1.1,3.69-1.82,1.94-2.16l-.98-.15,1.13-.36c1.98-.58,6.29-2.46,7.09-3.08.41-.33,1-.58,1.29-.58.4,0,8.49-1.87,10.65-2.46.19-.07.4-.33.4-.58,0-.36-.48-.52-2.01-.58-1.94-.1-1.82-.14,2.82-.91,3.85-.65,4.86-.94,4.95-1.36.07-.41-.22-.58-1.29-.74-1.46-.19-3.25-.4-5.12-.48-1.03-.07-.94-.14.98-.69,1.17-.36,2.63-.77,3.25-.94.62-.15,2.89-.81,5.02-1.43,2.13-.62,5.45-1.53,7.39-2.01,1.91-.52,3.47-1.03,3.47-1.17,0-.84-3.3-1.1-7.28-.55-1.56.19-2.85.29-2.94.19-.19-.15,6.15-2.56,9.26-3.47,1.32-.4,2.78-.84,3.25-.98.45-.15,1.65-.52,2.68-.81,2.01-.55,2.59-1.43.98-1.49-.81,0-.84-.03-.26-.29.91-.41,7.97-1.72,14.74-2.75,3.11-.48,5.86-.94,6.12-1,.62-.19-.1-.98-1.2-1.29-.81-.22-.77-.26.58-.48.81-.14,2.13-.26,2.97-.26,1.53-.03,2.2-.48,1.61-1.07-.4-.4-5.77-1.24-8.31-1.25-1.53,0-1.79-.07-1.13-.29,1.1-.4,12.01-1.29,15.62-1.29,2.71,0,2.92-.03,2.75-.62-.14-.48.07-.65.88-.81.84-.14,5.77-.29,12.01-.36,1.58,0,4.9.29,8.06.7,1.94.22,1.94-.33,0-1.46l-1.25-.74,2.42.19c1.32.1,5.86.33,10.03.48,4.17.19,8.45.41,9.48.52,1.53.14,1.84.07,1.84-.33,0-.29-.4-.7-.88-.98-1.32-.7-.58-.65,7.35.62,8.93,1.46,10.31,1.46,8.35.03-.47-.34-.29-.45.55-.33.7.14,4.69.94,8.85,1.79,6.52,1.39,9.77,1.88,9.77,1.49,0-.48-2.01-1.55-4.95-2.66-.84-.33-1.49-.62-1.43-.69s2.71.33,5.93.84c5.77,1,7.75,1.1,7.75.48,0-.52-2.89-1.94-6.18-3.08-1.68-.58-3.04-1.13-3.04-1.2,0-.15,3.5-.03,10.03.41,4.79.33,4.69.33,4.69-.19,0-.41-3.52-1.79-7.46-2.82-.81-.19-.69-.26.98-.33,16.61-.69,22.93-1.46,21.59-2.75-.29-.26-4.36-1.1-7.03-1.43l-1.94-.26,1.29-.22c.7-.14,4.57-.77,8.59-1.43,4.02-.65,7.46-1.32,7.68-1.56.26-.26.29-.55.1-.88-.22-.36-1.2-.52-4.11-.65l-3.81-.15,7.06-1.17c8.26-1.39,9.77-2.08,5.53-2.42-2.89-.26-2.97-.36-1.32-1.43.84-.52,1.53-1.17,1.53-1.46,0-.62-.14-.62-2.23.15-.94.33-2.41.7-3.25.77-1.03.14-1.24.1-.69-.1,1.75-.58,2.94-1.36,2.85-1.87-.1-.58-.19-.55,6.22-2.2,6.48-1.68,8.26-2.27,8.26-2.78,0-.74-3.04-.62-10.03.4-3.56.52-6.91,1-7.46,1.1-.69.1-.41-.14.98-.81,1.07-.52,2.41-1.07,2.92-1.25.55-.15,3.47-1.03,6.48-1.94,8.23-2.49,9.23-2.89,9.23-3.52,0-.4-.36-.45-2.27-.29-2.01.15-2.3.14-2.59-.45-.19-.36-.69-.62-1.13-.62-1.58,0-.74-.52,2.85-1.72,4.57-1.56,9.1-3.76,9.23-4.54.1-.45-.14-.55-1.29-.55-.77.03-2.04.15-2.85.33-1.17.22-1.53.15-1.72-.22-.19-.33-.69-.41-1.53-.4-2.27.15-1.65-.19,1.87-1.13,5.21-1.36,10.1-3.14,10.1-3.62,0-.7-1.46-.88-6.12-.69-3.37.14-4.57.07-5.02-.26-.55-.41-.55-.45.1-.81.4-.19.69-.62.69-.98,0-.33.1-.69.26-.74.14-.1,1.39.03,2.78.26,2.75.41,5.05.29,5.05-.29,0-.19-2.2-1.1-4.93-1.98-4.36-1.46-6.05-2.23-5.67-2.66.07-.07.94,0,1.87.15,2.1.29,2.89.19,2.89-.45,0-.26-.26-.55-.55-.65-2.34-.77-8.85-4.79-8.85-5.45,0-.22-.58-.88-1.32-1.46-2.1-1.72-1.24-1.53,1.72.36,5.05,3.26,5.74,3.59,6,2.97.14-.4-.52-1.24-2.41-3.08-2.68-2.66-2.97-3.04-1.32-1.87.65.48,1.07.58,1.29.36.55-.55-1.36-2.94-4.79-6.12-2.97-2.71-4.76-4.98-3.59-4.54.26.1,1.49.88,2.68,1.75,2.78,1.98,4.57,3.01,5.15,3.01,1.07,0,.69-.74-1.43-2.82-1.2-1.2-2.34-2.56-2.46-3.01-.84-2.71-8.09-10.5-18.95-20.2-.98-.88-1.53-1.49-1.2-1.39,1.53.55,2.16.62,2.16.15,0-.52-4.21-4.67-6.8-6.73-3.33-2.66-7.39-6.73-6.99-7.13.22-.22.07-.58-.62-1.17-2.37-2.04-5.24-4.09-9.72-6.87-.91-.58-1.36-1.03-1.03-1.03.98,0,.62-.88-.98-2.27-1.79-1.56-4.43-3.18-9.4-5.67-1.91-.94-3.37-1.75-3.18-1.75.15-.03-.29-.62-.98-1.32-2.04-2.08-5.51-3.99-10.94-5.96-2.34-.88-1.58-1,1.36-.22,3.11.81,2.94.81,2.94.15,0-.94-5.05-2.97-12.73-5.15-1.39-.4-1.84-.65-1.72-.98.22-.62-1.58-1.98-3.73-2.78-2.23-.88-6.84-1.79-11.01-2.23-1.84-.19-3.88-.4-4.5-.45s-1.82-.14-2.66-.15c-.88,0-1.56-.15-1.56-.36s.65-.26,1.61-.14c1.32.14,1.61.1,1.61-.33,0-2.1-9.43-2.68-21.04-1.29-7.32.88-8.13.91-10.03.33-1.46-.45-2.85-.52-7.61-.4-6.05.14-10.98.74-20.53,2.49-2.92.52-5.34.91-5.45.84-.07-.1.29-.26.77-.36,3.47-.84,7.22-2.1,7.22-2.49,0-.48-.48-.52-3.59-.26-4.86.41-14.22,2.66-23.28,5.6-1.32.41-2.49.7-2.56.65-.07-.07-.07-.15,0-.22.36-.26,4.5-2.42,8.31-4.35,5.27-2.68,5.79-3.76,1.03-2.3-3.08.98-8.59,3.21-14.57,5.93-3.66,1.68-7.58,3.26-8.74,3.59-1.17.29-4.43,1.55-7.28,2.75-5.31,2.3-5.77,2.01-.88-.55,1.25-.69,2.34-1.36,2.34-1.53,0-.48-2.68.03-4.93.98-2.27.91-6.63,3.21-9.26,4.9-3.01,1.91-9.74,5.15-10.03,4.86-.33-.33-.84-.14-4.24,1.43-3.99,1.82-11.7,6.73-18.11,11.53-1.84,1.39-2.42,1.68-2.78,1.39-.62-.52-4.47,1.53-9.43,5.02-2.13,1.49-4.21,2.71-4.64,2.71-.4,0-1.72.45-2.92.98l-2.16.98,1.32-1.2c.7-.69,1.58-1.39,1.91-1.58.74-.41.4-1.1-.62-1.1-1.24,0-4.54,1.84-8.04,4.54-2.46,1.84-3.44,2.46-3.73,2.2-.84-.7-6.32,3.44-16.2,12.25-2.71,2.46-4.86,4.05-6.96,5.19-1.65.91-3.99,2.2-5.19,2.85-1.91,1.07-2.13,1.13-1.98.52.22-.91-.19-.84-2.92.52-2.49,1.25-18.81,7.9-19.43,7.9-.19,0,.29-.41,1.1-.94.77-.48,1.79-1.29,2.2-1.79.69-.74.7-.84.22-.84-.33,0-1.13.29-1.79.65s-1.98.94-2.94,1.32c-2.92,1.13-12.7,4.5-13.02,4.5-.19,0,0-.29.41-.62.41-.36.69-.74.52-.88-.14-.14-2.68.19-5.67.74-3.76.69-5.79.94-6.7.77l-1.29-.22,1.03-.55c2.13-1.13,2.75-2.49,1.1-2.49-1.84,0-12.92,2.63-19.31,4.57-2.13.65-4.47,1.17-3.4.74.48-.19.69-.26,3.33-1.43,1.46-.65,2.08-1.61,1-1.61-.29,0-3.56.52-7.32,1.13-3.76.65-6.89,1.07-7.03.98-.1-.14-.19-.4-.19-.58,0-.7-3.5-.62-9.26.26-3.07.41-5.63.74-5.7.69-.07-.03,1.39-.58,3.21-1.13,1.84-.58,3.69-1.2,4.14-1.32.45-.15,3.66-1.1,7.13-2.08,8.31-2.34,13.61-4.14,19.91-6.84,14.89-6.36,23.67-12.04,33.48-21.77,2.75-2.71,5.24-4.95,5.51-4.98,2.27-.15,5.82,1.32,12.44,5.24,2.16,1.29,5.05,2.89,6.37,3.5,2.2,1.03,2.68,1.17,5.19,1.17s3.01-.14,4.95-1.03c2.56-1.24,5.57-3.95,8.31-7.54,3.33-4.36,8.01-11.42,9.62-14.57.91-1.68,2.3-4.11,3.14-5.41,1.94-3.04,2.42-4.21,4.6-11.23,2.13-6.87,3.04-8.9,4.69-10.39,1.98-1.79,3.37-2.04,6.7-1.24,1.56.4,4.11,1.13,5.7,1.72,3.37,1.2,4.95,1.17,6.32-.1.45-.45,1.2-.88,1.65-.94,1.25-.15,1.2-1.39-.19-3.66-.65-1.07-1.43-2.46-1.75-3.08-.74-1.46-3.52-4.64-5.41-6.18-1.75-1.43-2.53-1.61-8.04-1.87l-4.21-.19,1.91-.74c1.03-.4,3.44-.94,5.27-1.2,1.87-.26,3.5-.55,3.66-.65s1.75-.33,3.56-.48c3.66-.36,5.34-1.07,5.7-2.49.14-.41.55-.94.98-1.07,1.79-.69.65-2.71-2.56-4.6-5.41-3.14-13.18-3.59-21.28-1.24-1.13.36-2.13.58-2.16.52-.29-.29,3.08-4.05,7.47-8.45,4.93-4.86,7.32-7.9,8.01-10.17.22-.81.65-1.32,1.29-1.61,1.13-.48,1.53-1.53.81-2.27-.4-.4-1.07-.52-2.56-.45-1.1,0-2.85.03-3.92.07-1.03,0-3.08.33-4.54.69-4.5,1.17-5.89,2.13-12.54,8.64-3.3,3.26-6.08,5.93-6.18,5.93s-.29-.65-.4-1.43c-.15-.94,0-2.23.41-3.95,1.43-5.74,1.2-9.29-.81-12.95-1.1-1.98-3.33-4.35-4.11-4.35-.26,0-.77-.36-1.17-.77-1-1.03-2.42-1.61-3.47-1.36-.7.19-.81.4-.74,1.25.07.74-.1,1.25-.65,1.82-1.79,1.79-2.04,3.92-.98,8.3.52,2.16.62,3.3.41,5.12-.14,1.29-.29,2.46-.36,2.59-.1.14-.62-.74-1.24-1.94-2.08-4.35-4.28-6.25-7.16-6.25-1.1,0-1.82-.15-2.08-.48-.55-.65-2.04-.62-2.66.07-.29.33-.58,1.24-.69,2.04s-.36,2.27-.58,3.25c-.33,1.56-.29,2.1.29,4.21.36,1.32,1.32,4.17,2.16,6.29,1.84,4.72,2.75,8.16,2.75,10.46,0,1.24-.52,3.3-1.91,7.47-1.07,3.14-2.23,6.44-2.59,7.32l-.69,1.58-1.68-2.2c-5.12-6.77-14.57-13.4-29.82-20.92-7.09-3.5-16.97-6.96-23.71-8.31-11.78-2.42-26.39-2.3-36.21.26-6.99,1.84-14.81,5.89-23.71,12.3-7.2,5.19-15.51,9.07-19.46,9.07-1.87,0-5.89-3.52-10.31-9-2.82-3.52-4.28-5.86-6.51-10.46-4.28-8.74-6.91-13.47-10.65-19.24-3.4-5.19-6.61-8.9-13.98-16.23l-6.55-6.51,2.59-6.29c8.13-19.69,9.14-23.9,9.16-37.54,0-7.61-.07-8.45-.74-10.79-.88-3.11-2.78-6.94-5.24-10.58-1-1.53-3.4-5.6-5.34-9.07-1.91-3.47-3.76-6.7-4.09-7.16-.55-.84-.55-.94.03-3.4,1.29-5.34,2.66-7.78,6.05-10.58,5.08-4.24,6.8-8.71,3.14-8.26-.7.1-1.61,0-2.08-.26-.45-.22-1.36-.48-2.04-.62l-1.2-.22,1.58-1.58c.88-.88,2.08-2.53,2.66-3.69.91-1.87,1-2.27.81-3.95-.14-1.03-.29-2.46-.36-3.14-.07-.7-.19-1.46-.29-1.72-.26-.65-1.49-.52-2.78.29-.62.4-2.23,1.24-3.59,1.91-1.36.65-2.59,1.36-2.68,1.56-.45.7-.81.33-.48-.52.15-.48.33-1.84.29-3.01s-.03-2.46,0-2.85c0-.41-.07-.91-.19-1.07-.29-.48-1.53-.33-2.82.33-.65.33-1.75.7-2.41.84-1.87.36-2.71.91-4.98,3.3-2.49,2.68-4.09,5.31-5.67,9.47-.65,1.72-1.24,3.14-1.29,3.21-.03.07-.41-.1-.84-.36-.4-.29-1.49-.7-2.37-.98-.91-.26-2.2-.77-2.92-1.17-.7-.36-1.46-.69-1.68-.69-.7,0-1.17,2.68-1.24,7.46-.03,3.14-.22,5.41-.58,6.8-.29,1.17-.69,4.09-.88,6.48-.55,6.87-3.25,17.2-5.82,22.32-5.02,10.03-7.71,12.59-15.12,14.48l-3.18.81-3.25-1.03c-1.79-.55-4.93-1.68-6.96-2.46-2.04-.81-6.55-2.46-10.02-3.69-6.61-2.34-8.16-3.08-12.82-6.22-5.38-3.59-7.39-5.41-17.52-15.67l-10.07-10.2.48-1.67c.26-.94.48-3.4.52-5.57.03-2.63.26-4.57.65-6,.81-2.78.91-7.87.19-8.04-.33-.03-.69.29-.88.81-.26.61-.34.53-.22-.22.36-2.42.29-4.9-.14-5.15-.41-.26-.4-.81.94-9.47.7-4.76.74-5.93.19-6.37-.41-.36-.48-5.79-.1-10.1.4-4.36-.84-5.51-1.82-1.65-.33,1.32-.69,2.49-.77,2.59-.14.1-.14-1.03,0-2.56.58-7.61.58-9.52.1-10.2-.69-.88-.98-.48-1.87,2.56-.88,3.07-1.17,2.75-.48-.52.81-3.88.81-4.17.26-4.09-.26.07-1.2,1.32-2.08,2.85l-1.58,2.75.22-1.61c.45-2.92.15-4.11-.72-2.92-.26.36-1.94,3.33-3.76,6.63-5.08,9.33-5.31,9.72-7.78,12.47-1.25,1.43-3.33,4.09-4.64,5.89-2.66,3.73-2.94,3.69-2.37-.15.4-2.66.52-10.87.15-12.15-.36-1.24-1.07-1.1-1.53.33-.22.69-.48,1.32-.62,1.46-.1.14-.19-2.13-.19-5.02-.03-3.92-.15-5.48-.48-6.18-.74-1.46-1.17-1.36-1.58.36-.48,1.82-1.13,3.4-.84,2.04.1-.45.26-2.92.36-5.51.22-4.9.03-6.15-1.03-6.15-.41,0-.45-.29-.26-1.84.33-2.56.33-5.19,0-5.51-.14-.14-.62.15-1.03.7-.74.91-.77.94-.77.22,0-.77-.62-.94-1.24-.33-.29.29-.33.15-.1-.58.52-1.75.52-1.87.03-1.94-.26-.05-.77.24-1.1.6h0l.27-.05ZM640.21,309.81c-.1.1-.4.14-.62.03-.26-.1-.15-.19.19-.19.36-.03.55.07.41.15h.02ZM661.46,315.16c.84.19,1.58.45,1.68.62.14.22-4.35-.74-5.12-1.1-.48-.22,1.36.03,3.44.48h0ZM358.79,390.13c-.1.1-.4.14-.62.03-.26-.1-.15-.19.19-.19.36-.03.55.07.41.15h.02ZM356.84,390.78c-.1.1-.4.14-.62.03-.26-.1-.15-.19.19-.19.36-.03.55.07.43.15ZM485.41,516.11c-.1.1-.4.14-.62.03-.26-.1-.15-.19.19-.19.36-.03.55.07.41.15h.02Z"/>
  </g>
</svg>